/* XPM */
static char *_64b8841ec994dbcbb2a7f0ef80961caJVVhqvGJoZKy9ozm[] = {
/* columns rows colors chars-per-pixel */
"64 64 170 2 ",
"   c #141414",
".  c #1C1C1C",
"X  c #1F2927",
"o  c #1B3E36",
"O  c #222323",
"+  c #252A29",
"@  c #2B2B2B",
"#  c #22322E",
"$  c #2B312F",
"%  c #253732",
"&  c #243B36",
"*  c #2C3A36",
"=  c #2E3D3A",
"-  c #323232",
";  c #333937",
":  c #323C3A",
">  c #3D3D3D",
",  c #23433B",
"<  c #2C433D",
"1  c #33423E",
"2  c #3B413F",
"3  c #1F4940",
"4  c #224D43",
"5  c #294840",
"6  c #334541",
"7  c #3D4341",
"8  c #334A44",
"9  c #3E4A47",
"0  c #344F48",
"q  c #3A4E49",
"w  c #215147",
"e  c #285147",
"r  c #275349",
"t  c #2E524A",
"y  c #265A4F",
"u  c #35534C",
"i  c #3B544E",
"p  c #385750",
"a  c #345C53",
"s  c #3C5B53",
"d  c #2B695C",
"f  c #346157",
"g  c #3D6057",
"h  c #356559",
"j  c #3D655C",
"k  c #36695D",
"l  c #3B6A5F",
"z  c #366D61",
"x  c #3B6D62",
"c  c #367265",
"v  c #3D7366",
"b  c #337769",
"n  c #3B7668",
"m  c #377F6F",
"M  c #3B7B6D",
"N  c #3F7F71",
"B  c #434343",
"V  c #434947",
"C  c #434C4A",
"Z  c #4A4B4B",
"A  c #42524E",
"S  c #4A514F",
"D  c #425651",
"F  c #495451",
"G  c #425B55",
"H  c #4B5A56",
"J  c #445F58",
"K  c #4A5D59",
"L  c #545454",
"P  c #545B59",
"I  c #585858",
"U  c #43635B",
"Y  c #4B635D",
"T  c #41685F",
"R  c #426D63",
"E  c #4B6C64",
"W  c #556561",
"Q  c #447167",
"!  c #497067",
"~  c #43766A",
"^  c #4A756C",
"/  c #427A6D",
"(  c #4F796F",
")  c #447E71",
"_  c #4C7C71",
"`  c #557D75",
"'  c #348372",
"]  c #3D8374",
"[  c #368D7B",
"{  c #3D8C7B",
"}  c #3B907E",
"|  c #448375",
" . c #4B8276",
".. c #428779",
"X. c #4D8679",
"o. c #438B7B",
"O. c #4B8A7D",
"+. c #54847A",
"@. c #59847B",
"#. c #528A7F",
"$. c #43907F",
"%. c #379481",
"&. c #3C9482",
"*. c #3C9986",
"=. c #3D9E89",
"-. c #3C9E8A",
";. c #3DA28D",
":. c #478F81",
">. c #498E81",
",. c #4E8F81",
"<. c #538D82",
"1. c #598E85",
"2. c #439080",
"3. c #459180",
"4. c #499383",
"5. c #4A9485",
"6. c #429887",
"7. c #469987",
"8. c #4D9788",
"9. c #439D8B",
"0. c #449D8B",
"q. c #499B8B",
"w. c #4C9B8B",
"e. c #519486",
"r. c #519588",
"t. c #509889",
"y. c #509F8F",
"u. c #539F8F",
"i. c #649D92",
"p. c #40A18D",
"a. c #41A28E",
"s. c #48A08D",
"d. c #43A691",
"f. c #46A490",
"g. c #4EA291",
"h. c #49A492",
"j. c #4DA796",
"k. c #46A894",
"l. c #4AAA96",
"z. c #4EA995",
"x. c #4DAC9A",
"c. c #54A494",
"v. c #58A393",
"b. c #56A898",
"n. c #51AE9B",
"m. c #58A99A",
"M. c #59AB9B",
"N. c #5BAE9D",
"B. c #5EAF9F",
"V. c #53B19E",
"C. c #6AA398",
"Z. c #62AE9D",
"A. c #6DA99F",
"S. c #56B3A1",
"D. c #5AB6A4",
"F. c #5CB8A7",
"G. c #5EBAA9",
"H. c #62AFA1",
"J. c #69ADA0",
"K. c #64B2A3",
"L. c #60B7A7",
"P. c #69B3A4",
"I. c #6AB5A6",
"U. c #6CB5A8",
"Y. c #61BCAB",
"T. c #6DC2B2",
"R. c #72C4B5",
"E. c #76C7B9",
"W. c #78C7B8",
"Q. c #77C8B9",
/* pixels */
"B B B B B B >   - - > > > B B B B B B B B B B - - B B B B B B B B B B B B B >   - - B > > B B B B B B B B B B - @ B B B B B B B ",
"B B > B B > -   > B Z B B B B B B B B B B C V 1 < C C V B B B B B B B B B > @   > Z Z Z B B B B B B B B B B B - - B > B B > B B ",
"- - - - - - @   - - - - - - - - - - - - : 1 0 , , 8 1 6 1 1 - - $ - - - - - @   @ - - - - - - - - - - - - - - . . - - - - - - - ",
"+ > B B Z Z B Z I Z B B > B B @ > B Z S P Y Y G s D G G D D i B $ > B B Z Z B Z I Z > B B B > + > B Z Z L L Z B > B B L B > > @ ",
"O B B B B B B B B B > > B Z > O B B B C A G T T U U D G G G J i & B B B B B B B B B - B B / ; X B B B B B B B B B B B B B B B O ",
"- > B B Z B B B B B B B B B B - > B B C G T / | | ~ R G J U U G 8 A B B Z B B B B B B B A Q ! 6 > B B B B B B B B B B Z B B B - ",
"  O @ - ; - - - - - - - - - - . @ - ; 1 0 f M { u.v.8.o.x a 4 4 3 , ; - - - - - - - - - - { N & @ - - - - - - - - - - - - - O   ",
"B L Z B Z B >   > B Z Z Z B B B B B B C i G x c { B.P.Z.u.o.~ U U W S B Z B >   > B Z Z F ~ $.B B B B B > B > @ @ B B Z B B L B ",
"B B B B B B B   B B B B B B B B B B C C A A i r c $.c.I.H.M.q./ U D A B B B B   B B B B C A / R B B B B B > > O @ B B B B B B B ",
"B B B B B B B   > B B B B B B B C C C C D D T 0 u R o.w.H.U.H.4.x U A V B B B   B B B B U C ) ( B B B B B B B @ - B B B B B B B ",
"- - - - - ; @   @ - - - - - - ; : 1 1 6 8 0 f ' e a z N 7.B.P.Z.M a 1 ; - - @   @ - - - 1 | M a - - - - - - - . . - - - - - - - ",
"@ > B B L I L B Z Z B B B B B @ 2 V A H Y D D M } { &.7.0.h.K.J.#.R D Z L L L B Z B B B 8.| A $ > B Z Z Z Z B B B B I L B > > @ ",
"O B B B B B B B B B B V Z V > O V A C A D G R { -.p.s.z.z.z.N.b.w.Q A B B B B B B B B Z O.i 2 # B B B B B B B B B B B B B B B O ",
"@ B B B B B B B B B B V C C V ; C D D G G R o.*.;.d.n.b.M.N.M.q.| U C V B B B B B B B #._ ` ^ - B B B B B B B B B B Z B B B B - ",
". O - - - - - - - - - - : : ; # < h f u h ' &.-.p.z.M.c.t.3.{ b y < * - - - - @ - - - @.1.#.( . @ - - - - - - - - - - - - - O . ",
"Z I I Z B B >   > B Z Z I L C C C x R D R { *.-.p.z.c.o.( E U U Y W P Z Z B >   > B Z @.A.C.+.B B B B B > B B O @ B B B Z I I Z ",
"B B B B B B >   B B B B B B B B Z A ~ x R { &.-.;.s.z.$.R D D D D D Z B B B >   B B B B ` i.H B B B B B B B B @ - B B B B B B B ",
"B B B B B > -   > B B B B B B B V C R x T | { *.-.p.s.0./ U U A A A A B B B -   B B B B B +.^ B B B B - B V - O - B B B B B B B ",
"- - - - - - @   + - - - - - - - : 6 8 h m M { %.&.;.;.0.{ h 6 a 6 6 8 : - ; @   @ - - - - - - - - - - - - ; - . . - - - - - @ - ",
"@ > > Z I L B B B B B B B B > @ 2 C G E ( O.{ -.;.*.;.p.0.] v b s s T A I L B 7 B B > B B B > + > B B L L L Z B B B L I B B > @ ",
"O B B B B B B B B B B > B Z : O B C D G x | { *.;.;.;.;.p.p.} [ R G Q A B B B B B B > > B Z > O B B B B B B B B B B B B B B B O ",
"- > B B B B B B B B B B B B B - B C C A D { { &.-.;.;.;.;.;.;.;.{ R Q B V V C B B B B B B B B - B B T V B B B B B B B B B B B - ",
". O - - - - - - @ - - - ; - - % $ ; ; 8 0 f &.*.;.;.d.p.p.;.;.;.%.[ m c p u 8 : - - - - - - - . @ i k a - - - - - - - - - - O . ",
"Z L I Z B B >   > B Z L L B Z J i B B s A s ] &.;.;.d.x.x.k.;.;.;.-.9.} ..G s o C B B L L B B B C U T R V 7 B O @ B B Z B L L Z ",
"B B B B B B B   B B B B B B D J A B C A D j ] [ ;.;.k.n.S.x.l.;.;.;.;.-.-.{ G , A C V B B B B B V Z R x K > > . - B B B B B B B ",
"B B B B B B B   B B B B B B G J H B C D D G ..} %.;.d.n.S.S.V.l.d.;.;.;.*.{ M w G s C V B B B B V V V ! E B B - - B B B B B B B ",
"- - - - - - @   @ - - - - - p p q - ; 8 q u k ' [ ;.;.x.S.F.F.V.k.;.;.;.;.-.[ d a a u 1 - - - - = : j v s - - . . - - - - - - - ",
"@ > B Z I Z B B Z B B B B 7 G u > B C P W U v | } ;.;.d.x.F.F.F.V.k.;.;.;.;.p.4. .R J s C 7 B + x U ` ` W Z B B > B B I Z B > @ ",
"O > B > B B B B B B B B Z > s 0 > B B C D J T ] &.;.;.;.k.V.F.F.S.n.l.;.;.;.;.;.:...T g H 9 > 5 n E +.E B B B B B B B B B B B O ",
"- B B Z Z Z B B B B B B B B J p 6 - 2 Z F U U ] } ;.;.;.d.n.S.F.F.S.x.d.;.;.;.;.;.5.X.R U s C z | +.! F B Z B B B B Z B Z B B - ",
". O @ - - - - @ - - - - - - V u p q - - 0 u p c ;.;.;.;.;.k.V.F.F.F.S.x.p.;.;.;.;.d.q.2.] z b N ,.s 0 6 - - - - - - - - - - O . ",
"L B Z B B B >   > B B Z I L F K U U A J G U g ' ;.;.;.;.;.k.V.S.F.F.V.n.l.;.;.;.;.;.k.j.w.:.X.<.<.D C V B B B O @ B B B B B B L ",
"B B B B B B >   ; - > > 2 B B U J J E E R G x &.;.;.;.;.;.l.S.D.F.F.F.V.x.d.;.;.;.;.;.l.x.s.3.<.X.R V V B B B - @ B B B B B B B ",
"B B B B B > @   B B Z Z B B B G J J E ^ R x ) -.;.;.;.;.k.x.D.D.F.G.F.D.V.x.d.;.;.;.;.;.k.l.s.5.X./ V V B B B - - B > B B > B B ",
"- - - - - - @ . @ - - - - - - i s s ~ ) ] x %.-.;.;.;.;.d.V.D.F.G.G.G.G.F.D.x.d.;.;.;.;.d.k.l.&.] M z 8 - - - . . - - - - - - - ",
"@ > B B Z B B Z I Z > B B B B * s R  . .X.o.-.;.;.;.;.;.;.x.D.G.G.G.G.G.F.F.V.V.l.k.;.;.;.d.k.h.&.] / Y L L Z B B > Z Z B > > @ ",
". B B B B B B B B B > > Z Z ; O U U _ X.] &.;.;.;.;.;.;.d.x.F.G.Y.Y.Y.Y.Y.G.G.S.V.x.d.;.;.;.d.k.:.{ ~ J B B B B B B B > B B B O ",
"- B B B Z B B B B B B B B B B - D U ^ | { ;.;.;.;.;.;.;.d.x.F.G.Y.Y.Y.Y.F.G.G.G.F.S.V.x.k.d.;.k.:.| x U B B B B B B B L B B > - ",
"  O @ - - - - - - - - - - - - . < j | ] ;.;.;.;.;.;.;.;.x.S.G.G.G.Y.Y.Y.Y.G.G.Y.G.F.D.S.x.d.;.k.*.&.a u - - - - - - - - - - O . ",
"B L Z B Z B >   > B S Z Z B B B A E | X.;.;.;.;.;.;.;.k.V.F.G.Y.G.Y.G.Y.G.Y.G.G.G.G.G.F.V.k.d.d.7.:.j B B > B + @ B B Z > B L B ",
"B B B B B B B   B B B B B B B B C ~ ) o.p.;.;.d.;.d.d.l.S.F.G.Y.G.G.Y.G.Y.G.G.F.F.F.F.D.V.l.d.l.6.o.R B B > > . - > B B B B B B ",
"B B B B B B B   B V Z B B B B B G ) | 4.h.p.d.k.k.k.l.x.S.D.F.F.Y.Y.Y.Y.Y.Y.Y.G.D.D.S.S.V.x.d.d.0.&.U V B B B @ - B B B B B B B ",
"- - - - - - @   @ ; - - - - - - 8 M ] 3.z.k.d.x.V.S.V.S.S.D.F.Y.| 4.T.T.T.T.T.T.Y.Y.G.) >.V.x.d.-.&.9 ; - - - . . - - - - - - - ",
"@ > B B L L L B Z Z B B B > B @ q / | 8.n.x.x.k.x.S.S.F.F.F.G.r.t r Q.Q.Q.Q.E.E.R.Y.e.< 8 D.x.d.-.&.F L Z Z B B B B P L Z > > @ ",
"O B B B B B B B B B B B B B ; + A / ..O.M.D.n.z.l.V.S.F.F.F.L.j = = W.W.Q.E.Q.E.R.Y.j = = x.d.;.-.) D V B B B B B B B B B B B . ",
"- B B B B B B B B B B B B B B ; A T | o.c.F.S.x.k.l.l.x.N.F.F.x = 8 R.R.T.T.R.U.Y.Y.j = 0 d.;.;.-.M D V B B B B B B B B B B B - ",
". O - - - - - - - - - - ; - - X < 0 M v g.F.D.n.l.d.d.d.l.x.V.>./ | Y.Y.Y.Y.Y.Y.Y.F.O.] ] d.;.;.%.k 6 - - - - - - - - - - - O . ",
"Z L I Z B B >   > B Z Z I L Z V A D j ) O.V.D.D.S.l.d.;.d.d.k.k.l.x.S.F.D.D.D.S.n.n.l.d.;.;.;.;.) s C B B B B O @ > B Z Z I I Z ",
"B B B B B B >   B B B B B B B B C D G M o.q.V.D.D.n.x.d.;.;.;.;.;.k.l.x.x.x.k.k.d.d.;.;.;.;.;.*.R D C B B B B @ - B B B B B B B ",
"B B B B > B -   > B B B B B B B V C D s G | u.S.D.D.V.x.k.d.;.;.;.;.;.d.d.;.;.;.;.;.;.;.;.;.-.&.G C B ; B Z - O - B B B B B B B ",
"- - - - - > @   @ - - - - - - - - ; 8 u u u l y.S.F.D.S.n.l.d.d.;.;.;.;.;.;.;.;.;.;.;.;.;.;.&.f 1 ; - - - - - . . - - - - - - - ",
"@ > B Z L L B B B B B > B B > @ > V Z H W W Y R v.S.D.F.D.S.x.k.;.;.;.;.;.;.;.;.;.;.;.;.-.&.s * > B Z Z L P Z B > B L I Z > > @ ",
". B B B B B B B B B B B B Z > . B V B V A D D F T r.N.D.F.D.S.x.k.;.;.;.;.;.;.;.;.;.-.*.E P 7 O B B B B B B B B B Z B B B B B O ",
"- B B B B B B B B B B B B B B - > B B B V C A F F J ) c.n.S.n.x.k.;.;.;.;.;.;.;.-.&.{ / Z B B - B B B B B B B > B B B B B B B @ ",
"  O - - - - - @ - - - - - - - . @ - - - - ; ; ; : 1 6 f ] b b &.} [ *.*.&.*.*.[ N c k 6 - - - . + - - - - - - - @ - - - - - O . ",
"Z L I Z Z B >   > B B L L B B B B B B > B 7 > @ + V Z P P A K U R ^ _ ~ Q x g o 9 V V L L B B B B B > B B > B @ @ B B Z B I L Z ",
"B B B B B B B   B B B B B B B B B B B B B > > . - B B B B V B V C C A C C C V . B B B B B B B B B B B B B B > . @ B B B B B B B ",
"B B B B B B B   > B B B B B B B B B B B B B > - @ B B B B B B B B B B V B B B   > B B B B B B B B B B B B B B @ - B B B B B B B ",
"- - - - - - @   @ - - - - - - - - - - - - - - O . - - - - - - - - - - - - - @   - - - - - - - - - - - - - - - . . - - - - - - - ",
"O > B L L Z B Z Z B B B B B > @ > B B L I Z B B B B B B B B > @ > B B Z P B B Z Z > B B B B > @ > B B L I Z B B B B Z I Z > > @ ",
"O B B > > B B B B B B > B B > . > B B B B B B B B B B B B Z ; O B B B B B B B B B B B > B > > O > B B B B B B B B B B > B B B O ",
"- B B Z Z Z B B B B B B B B B - - - > Z B B B B B B B B B B B - B B B Z Z Z B B B B B B B B B - - - > Z B Z B B B B Z Z Z B > - ",
". O @ - - - - - - - - - - - - . @ - - - - - - - - - - - - - O . . O @ - - - - - - - - - - - - . @ - - - - - - - - - - - - @ O . ",
"L B Z B B > >   > B Z Z L L Z Z B B B B B B B + @ B B L L L Z B L B B B B B >   > B Z Z I I Z B B B B B B B > @ @ B B B B Z B L "
};
