/* XPM */
static char *e7483e7708454a0d819a3b0a2fb98ebbFM65JNu9C6YMEgXC[] = {
/* columns rows colors chars-per-pixel */
"64 64 141 2 ",
"   c #141414",
".  c #161A19",
"X  c #1C1C1C",
"o  c #1E2423",
"O  c #1F2A27",
"+  c #1A3D35",
"@  c #232323",
"#  c #252A29",
"$  c #2B2B2B",
"%  c #2B3431",
"&  c #243D37",
"*  c #2A3B36",
"=  c #2E3D3A",
"-  c #323232",
";  c #323937",
":  c #333B39",
">  c #3D3D3D",
",  c #22433B",
"<  c #2D423D",
"1  c #33423E",
"2  c #39413E",
"3  c #254C43",
"4  c #2E4C44",
"5  c #324641",
"6  c #3C4240",
"7  c #334A45",
"8  c #3C4B47",
"9  c #334F48",
"0  c #3C4E49",
"q  c #265147",
"w  c #2A554B",
"e  c #35534B",
"r  c #3D524C",
"t  c #265E52",
"y  c #285D51",
"u  c #3E5650",
"i  c #355E54",
"p  c #3C5A52",
"a  c #2C6A5C",
"s  c #366157",
"d  c #356559",
"f  c #3C625A",
"g  c #366A5E",
"h  c #386B5F",
"j  c #2B6F61",
"k  c #356C60",
"l  c #3C6D61",
"z  c #2D7263",
"x  c #357365",
"c  c #3B7366",
"v  c #3B7669",
"b  c #377A6B",
"n  c #3D7A6C",
"m  c #434343",
"M  c #434847",
"N  c #434C4A",
"B  c #4A4A4A",
"V  c #42524D",
"C  c #435651",
"Z  c #4C5452",
"A  c #425C55",
"S  c #4B5A56",
"D  c #425F58",
"F  c #4A5E59",
"G  c #545454",
"H  c #585858",
"J  c #42655C",
"K  c #42695F",
"L  c #50625D",
"P  c #4F6660",
"I  c #436C62",
"U  c #4A6C63",
"Y  c #546761",
"T  c #536863",
"R  c #417166",
"E  c #427569",
"W  c #4A766C",
"Q  c #427A6C",
"!  c #4D7A6F",
"~  c #517068",
"^  c #437E71",
"/  c #4B7D71",
"(  c #537B72",
")  c #3C8474",
"_  c #3D8A79",
"`  c #3D917E",
"'  c #428374",
"]  c #4C8276",
"[  c #448778",
"{  c #4A877A",
"}  c #438B7B",
"|  c #4A8B7C",
" . c #54847A",
".. c #59847B",
"X. c #52897E",
"o. c #41907F",
"O. c #3D9482",
"+. c #3B9986",
"@. c #3C9F8A",
"#. c #3DA28D",
"$. c #4F8E80",
"%. c #518D80",
"&. c #5A8F84",
"*. c #429583",
"=. c #4B9283",
"-. c #439987",
";. c #449C89",
":. c #4D9A8A",
">. c #539284",
",. c #529788",
"<. c #589789",
"1. c #549B8C",
"2. c #5C9D8E",
"3. c #5B9E90",
"4. c #649D92",
"5. c #41A28E",
"6. c #44A591",
"7. c #4BA592",
"8. c #46A893",
"9. c #4EA996",
"0. c #53A292",
"q. c #5BA394",
"w. c #52A997",
"e. c #5AA997",
"r. c #54AC99",
"t. c #5BAE9C",
"y. c #5DB09F",
"u. c #61A596",
"i. c #6AA398",
"p. c #64AC9D",
"a. c #61B09F",
"s. c #5FB1A0",
"d. c #65AFA0",
"f. c #63B3A2",
"g. c #6AB6A5",
"h. c #6CB8A7",
"j. c #6DB7A8",
"k. c #6DB8A8",
"l. c #73B7A9",
"z. c #72BAAB",
"x. c #7ABEAF",
/* pixels */
"m m m m m m >   - - > > > m m m m m m m m m M - - m m m m m m m m m m m m 6 >   - - m > > m m m m m m m m m m - - m m m m m m m ",
"m m 6 m m > -   > B B B m m m m m m m m m B M ; % m m m V J J J J A V M m > $   > B B B m m m m m m m m m m m - - m > m m m m m ",
"- - - - - - $ X $ - - - - - - - - - - - - - - X X - - - s x v >.' v x s ; - $ . $ - - - - - - - - - - - - - - X X $ - - - - - $ ",
"# > m m B m m B H B m m m m > $ > m B B G G B m m m m m J Q 1.l.j.p.X.I G B m B H B m > m m > $ > > B B G G B m m m B B m m > $ ",
"X m m m m m m m m m > > m B > X m m m m m m m m m m m m I Q q.l.z.z.l.>.V m m m m m > > m Q ; o m m m m m m m m m m m m m m m @ ",
"- m m m B m m m m m m m m m m - > m m m m m m m m m M m K Q | 1.a.z.l.l./ M m m m m m m C I W 6 m m m m m m m m m m m G m m m - ",
"  @ $ - - - - - - - - - - - - X $ - - - - - - - - - ; e s x z z | l.z.h.q.7 - - - - - - - _ n & $ - - - - - - - - - - - - $ @   ",
"m G B m B m >   > m B B B > B m m m 6 m m 6 m @ $ 8 I / / Q Q Q u.x.x.z.u.C >   > m B B Z v *.m m > m m m > m @ @ m m B m m G m ",
"m m m m m m m   m m m m m m m m m m m 6 m 6 > 3 s R Q Q Q / <.q.g.z.z.h.1.C m   m m m m N C E I m m m m m > > @ - m m m m m m m ",
"m m m m m m m   > m m m m m m m m m m m m m m d h X.u.g.f.p.g.g.g.g.g.:.Q V 6   m m m m I N / ^ m m m m m m m $ - m m m m m m m ",
"- - - - - - $   $ - - - - - - - - - - - - - : a =.j.x.l.l.g.g.p.p.1.} v i - $   $ - - - 1 n n i - - - - - - - X X $ - - - - - - ",
"$ > m B G H G m B B m m > m > $ > m B B B B B | s.l.x.l.f.t.[ b n Q R J G H G m B B m m ,.' C % m m B B B B > m m m H G m m > $ ",
"X m m m m m m m m m m m B > > @ m m m m m m M e.f.h.l.h.0.[ v x Q R C m m m m m m m m C | V > # > m m m m m m m m m m m m m m @ ",
"- > m m m m m m m m m m m m m - > m m m m m m =.r.f.k.k.&.E Q v R V m m m m m 6 m m m X./ ! W - m m m m m m m m m m B m m m m - ",
"X @ - - - - - - - - - - - - - X $ - - - - - - v 9.y.h.h.2.x x z t @ - - - - - - - - - ..&.&.W X $ - - - - - - - - - - - - - @ X ",
"B H H B B > >   > > B B H G B B m m m m m m m i -.t.g.z.l.2.' Q Q Y H B B m >   > m m ..d.i.( B m m m m m m m $ @ m m m B H H B ",
"m m m m m m >   m m m m m m m m m m m m m m m i n 0.h.x.z.l.t.:.[ R N m m m >   m m m m ( 4.S m m m m m m m > $ - m m > m m m m ",
"m m m m m m -   > m m m m m m m m m m > m m - w x ^ ,.g.l.j.g.t.w.[ K m > m -   m m m m m  .W m m m m > m B - @ - m m m m m m m ",
"- - - - - - $   $ - - - - - - - - - : 7 : ; - O t x x ' p.g.j.t.w.7.x e - - $   $ - - - - - - - - - - - - - - X X - - - - - - - ",
"$ > m m H G m m m m 6 m m m > $ > m S U L H B m N E Q Q } t.f.r.9.w.=.U H G M m m m > m m m m $ > m m B G H B m m m G H B m > $ ",
"X m m m m m m m m m > > m B ; @ m N J J D m m m m C R Q Q 1.s.y.r.7.6.Q J C m m m m > > m B : @ m m m m m m m m m B m m m m > @ ",
"- m m m m m m m m m m m m m m - m A J J D m m m m m F v Q 3.f.y.r.w.8.} n I m m m m m m m m m - m m m m m m m m m m m m m m m - ",
"X @ - - - - - - - - - - - - - O 4 s i i 7 - - - - - - h v q.f.s.r.9.9.#.b c s % - - - - - - - X - - - - - - - - - - - - - - @ X ",
"B G H B m m >   > m B G G m N C I f J A m 6 m $ # N U / | e.g.s.y.w.9.6.*.c n t > m B G G m M m m m > m m m > # $ > m m B G G B ",
"m m m m m m m   m m m m m m N J J J J p N 2 > @ 9 R Q Q *.t.f.a.s.9.9.9.7.' E j I N m m m m m m m m m > M > > X $ m m m m m m m ",
"m m m m m m m   m m m m m m V J J A K K F M m 5 x n Q } e.y.y.y.s.r.9.9.w.0.[ z v I m m m m m m m m m B m m > - - m m m m m m m ",
"- - - - - - $   $ - - - - - 5 p e 5 9 i s e : y z x } a.g.t.s.s.s.t.r.r.9.7.7._ x x s 5 : - - - - - - - ; - - X X - - - - - - - ",
"$ > m B H B m m B m m m m 6 m 6 f J F Y ~ K J v Q ' t.h.f.y.s.s.f.s.9.9.7.5.5.7.{ Q n E J N 6 $ > m m G H B m m m m B G B m > $ ",
"X m m > m m m m m m m m B > > $ p f J J K R ) } o.0.k.g.g.s.s.s.s.s.9.r.r.6.#.7.7.[ ' n ^ c 8 @ > m m m m m m m m m m > > m m @ ",
"- m m B B B m m m m m m m m m - : 5 C K I E ' o.7.h.k.g.g.g.s.f.s.s.r.9.r.6.#.#.7.7.=.) [ ' l % - - > B M S C M m m B B B m m - ",
"X @ $ - - - - $ - - - - - - - X $ ; 7 s h v ) } f.k.h.g.g.f.f.s.s.s.r.9.9.7.5.#.#.6.7.7.;.O._ k - - - - 5 i i 5 - - - - - $ @ X ",
"G m B m m m >   > m m B H G B B m m A R R n o.0.h.h.g.h.g.s.s.s.s.s.y.r.9.r.6.#.#.#.#.6.7.;.-.$.I m m m A J D - $ m m m m B m G ",
"m m m m m m >   - - > > > m m m m m S E c ^ :.f.j.f.h.g.f.s.s.s.s.s.y.9.9.9.9.#.#.#.#.#.#.8.-.;.$.D m m A J A - - m m m m m m m ",
"m m > m m > $   > B B m m m m m m 6 P W I $.y.s.j.j.g.f.f.s.s.s.s.s.s.9.9.9.r.8.#.#.#.#.#.6.6.;.*.n N m C I A % % m > B m > m m ",
"- - - - - - $   - - - - - - - - - 5 E / [ 0.s.f.j.z.j.s.s.s.s.s.s.s.s.r.9.r.9.7.#.#.#.#.#.6.8.@.+.b e - 1 k x , o - - - - - - $ ",
"$ > m m B B m G H B m 6 m m > $ > D ] ] =.e.s.g.z.z.f.s.s.s.y.s.s.s.s.t.9.9.9.9.6.#.#.#.#.6.6.6.-.O.U B G T Q I M m M B m m > $ ",
"X m m m m m m m m m > > m B > @ N p ] { *.e.f.f.s.f.s.s.y.s.s.s.s.s.s.y.t.9.9.9.6.#.#.#.#.#.#.6.;.*.E C m N c E C m m m m m m @ ",
"- m m m B m m m m m m m m m m - r P W [ =.s.f.s.s.s.s.s.s.f.s.s.s.s.s.f.y.9.9.9.9.#.#.#.#.#.#.6.*.[ c N m C E Q K m m G m m m - ",
"  @ $ - - - - $ - - - - - - - X = I ^ [ w.s.s.s.s.s.s.s.f.f.s.y.s.s.y.s.y.9.8.9.9.6.#.#.#.#.#.6.-.O.k p ; s x x p - - - - $ @   ",
"m G B m B m >   > m Z B B m m m C I / $.t.s.s.r.s.s.s.s.s.f.t.y.s.s.y.s.y.9.9.9.r.r.8.#.#.#.#.6.-.-.^ c f R n k 5 > m B m m G m ",
"m m m m m m m   m m M m m m m m N R ' $.s.s.s.s.s.s.s.s.s.s.y.s.f.f.g.f.f.r.9.w.w.9.9.7.#.#.#.6.-.*.^ h K p l q % m m m m m m m ",
"m m m m m m m   m m M m m m m m D ^ ' ,.s.f.s.f.s.d.f.s.c [ f.j.k.k.k.k.h.g.r.v _ w.9.9.8.#.#.6.5.O.Q I K J I : % m m m m m m m ",
"- - - - - - $   $ : - - - - - - 7 n ) :.s.s.s.g.s.d.s.$.9 4 j.j.h.k.k.k.k.k.%.< 5 r.9.r.8.#.#.#.#.O.l s i i 9 o X - - - - - - - ",
"$ > m m G H G m B B m m m m m $ 0 E [ 1.s.s.s.s.s.s.t.i = < j.j.k.k.k.k.g.g.f = < r.9.9.7.6.#.#.#.O.R U F Z m m m m H G m m > $ ",
"@ m m m m m m m m m m m M > > # V E ' :.r.f.g.s.y.s.d.i = 5 j.g.f.h.h.g.f.t.f : 5 9.9.9.7.6.#.#.@.} I l N m m m m m m m m m m @ ",
"- m m m m m m m m m m m m m m : V I ' | r.s.h.s.s.s.d.$.n ^ s.s.t.f.f.r.r.w.} n [ 9.9.9.8.#.#.#.@.) I J m m m m m m m m m m > - ",
"  $ - - - - - - - - - - ; - - O < e v c r.f.h.f.s.s.s.f.s.s.f.s.y.y.s.r.9.9.9.9.9.8.6.6.6.#.#.#.O.b d 9 - - - - - - - - - - @ X ",
"B G H B m m >   > m B B H G B M N u f ^ :.f.h.g.h.s.s.s.g.s.f.j.g.f.y.9.6.5.#.#.#.#.#.6.#.#.#.#._ c A N m m > $ @ m m B B H H B ",
"m m m m m m >   m m m m m m m m N C D n } e.k.h.k.f.s.s.j.f.s.g.s.t.r.8.#.#.#.#.#.#.#.#.#.#.#.+.I D N m m m m $ - m m m m m m m ",
"m m m m m m -   > m m m m m m m M 0 C p D { d.j.x.g.s.s.s.s.s.j.f.r.9.#.#.#.#.#.#.#.#.#.#.#.@.O.J N m > m B - @ $ m m m m m m m ",
"- - - - - - $   $ - - - - - - - - : 7 9 e e { f.h.f.s.s.s.s.s.d.s.r.6.#.#.#.#.#.#.#.#.#.#.#.` s 5 ; - - - - - X X - - - - - - - ",
"$ > m B H G m m m m m > m m > $ > m B S P Y ! d.s.f.s.s.s.s.s.s.r.9.8.#.#.#.#.#.#.#.#.#.#._ J * > m m B G H B m m m G H B > > $ ",
"X m m m m m m m m m m > m B > X m M m N C C D { s.t.e.f.s.s.s.s.r.9.8.#.#.@.#.#.#.#.#.+.W Z > @ m m m m m m m m m B m m m m m X ",
"- m m m m m m m m m m m m m m - > m m m m N V S E | $.t.r.t.s.s.r.r.6.#.#.#.#.#.#.` _ x B m m % m m m m m m m m m m m m m m m - ",
"  @ - - - - - $ - - - - - - - X $ - - - - - - ; : 5 7 h *.' =.3.0.*.+.+.+.+.+._ b x g 5 - - - X $ - - - - - - - - - - - - - @ X ",
"B G H B B m >   > m m G G m B m m m m m m 6 m $ # M N H F C S l I W / E R l f + 8 N B Z G m B > m m 6 m > m m @ $ m m m B G G B ",
"m m m m m m m   m m m m m m m m m m m m m m > X - m m m M M M M N N N N N M M . m m m m m m m m m m m > B > > X $ m m m m m m m ",
"m m m m m m m   > m m m m m m m m m m m m m m $ - m m m m m m m m M M m M m m   m m m m m m m m m m m B m m m $ - m m m m m m m ",
"- - - - - - $   $ - - - - - - - $ - - - - - - X X - - - - - - - - - - - - - $   $ - - - - - - - - - - - - - - X X - - - - - - - ",
"$ > m B H B > B B m m m m m > $ > m B G H B m m > m > m m m > $ > m M B H B m B B m m m > m m $ > m m G H B m m m m m H B m > $ ",
"@ m m > > B m m m m m > B > > X > m m m m m m m m m m m B B - @ m m m m > M m m m m m > B > > X > m m m m m m m m m m > > m m @ ",
"- m m B B B m m m m m B m m m - - - > B m m m m m m m m m m m - > m m B B B m m m m m m m m m - - - > B m B m m m m B B B m m - ",
"X @ $ - - - - - - - - - - - - X $ - - - - - - - - - - - - - @ X X @ $ - - - - - - - - - - - - X $ - - - - - - - - - - - - $ @ X ",
"G B B m m m -   > m B B H B B B m m m m m m m $ @ m B G H B B m G B B m m m -   > m B B H G B B m > m m m m > $ $ m m m m B m G "
};
