/* XPM */
static char *_984270a05284f8db87fea41b048fca9kTLL6uoWMUMHC6Qc[] = {
/* columns rows colors chars-per-pixel */
"64 64 153 2 ",
"   c #141414",
".  c #151817",
"X  c #1C1C1C",
"o  c #1E201F",
"O  c #1E2221",
"+  c #162B26",
"@  c #1F322D",
"#  c #193831",
"$  c #232323",
"%  c #252C2A",
"&  c #2B2B2B",
"*  c #21342F",
"=  c #2C3734",
"-  c #253E38",
";  c #2C3E39",
":  c #323232",
">  c #323937",
",  c #333C39",
"<  c #3D3D3D",
"1  c #1F493F",
"2  c #25443D",
"3  c #2C443E",
"4  c #33413D",
"5  c #3E403F",
"6  c #1E4940",
"7  c #2F4540",
"8  c #2B4B43",
"9  c #334641",
"0  c #3E4241",
"q  c #344A44",
"w  c #3B4B46",
"e  c #334F48",
"r  c #265248",
"t  c #2D5148",
"y  c #29594E",
"u  c #34544C",
"i  c #3B554E",
"p  c #35584F",
"a  c #2D5C51",
"s  c #3D5750",
"d  c #345C53",
"f  c #3D5A53",
"g  c #276356",
"h  c #2B6559",
"j  c #2A6B5D",
"k  c #356156",
"l  c #366559",
"z  c #3E645A",
"x  c #366A5E",
"c  c #396A5F",
"v  c #366E61",
"b  c #3B6D62",
"n  c #357365",
"m  c #3B7266",
"M  c #357768",
"N  c #3F7669",
"B  c #337B6C",
"V  c #3B7B6D",
"C  c #3E7F71",
"Z  c #434343",
"A  c #434947",
"S  c #434C4A",
"D  c #4A4B4A",
"F  c #43524E",
"G  c #435651",
"H  c #4C5351",
"J  c #425C55",
"K  c #465F58",
"L  c #545454",
"P  c #565A59",
"I  c #585858",
"U  c #42645B",
"Y  c #4F635E",
"T  c #41695F",
"R  c #426D63",
"E  c #4D6E65",
"W  c #526E67",
"Q  c #596A67",
"!  c #427166",
"~  c #43756A",
"^  c #49756B",
"/  c #427B6E",
"(  c #4B7B6F",
")  c #437E71",
"_  c #4C7C72",
"`  c #547D74",
"'  c #378574",
"]  c #3C8474",
"[  c #348977",
"{  c #3D8B7A",
"}  c #3E917F",
"|  c #428374",
" . c #4B8376",
".. c #458779",
"X. c #4B8679",
"o. c #438C7C",
"O. c #4A8A7C",
"+. c #52867B",
"@. c #53897E",
"#. c #40907F",
"$. c #3D9582",
"%. c #3E9986",
"&. c #3C9C88",
"*. c #3DA28D",
"=. c #4B8F80",
"-. c #568C81",
";. c #439483",
":. c #4B9484",
">. c #439987",
",. c #4A9887",
"<. c #439C89",
"1. c #4C9A89",
"2. c #529687",
"3. c #559789",
"4. c #599689",
"5. c #539C8D",
"6. c #599E8F",
"7. c #599F91",
"8. c #649E93",
"9. c #42A48F",
"0. c #4BA18E",
"q. c #45A591",
"w. c #4AA793",
"e. c #4CA895",
"r. c #4FAB98",
"t. c #54A393",
"y. c #51AA97",
"u. c #5CA798",
"i. c #54AC99",
"p. c #5AAE9C",
"a. c #5DB09E",
"s. c #64A395",
"d. c #63A398",
"f. c #63AC9D",
"g. c #69AB9C",
"h. c #61B19F",
"j. c #5FB1A0",
"k. c #66AFA1",
"l. c #6EAFA1",
"z. c #64B3A3",
"x. c #6AB5A6",
"c. c #6CB8A7",
"v. c #6DB7A8",
"b. c #6EB8A8",
"n. c #71B6A7",
"m. c #73B7A9",
"M. c #74BBAC",
"N. c #79BCAE",
"B. c #7CBFB1",
"V. c #83BFB2",
"C. c #83C2B4",
"Z. c #89C5B7",
"A. c #88C5B8",
/* pixels */
"Z Z Z Z Z Z <   : : Z < < Z Z Z Z Z Z Z Z Z Z : : Z Z Z Z Z Z Z Z A Z Z Z 0 <   : : Z < 0 Z Z Z Z Z Z Z Z Z Z : & Z Z Z Z Z Z Z ",
"Z Z < Z Z < :   < Z Z D Z Z Z Z Z Z Z Z Z Z Z : & Z Z Z Z A F F T ! U F Z < =   5 D D D Z D Z Z Z Z Z Z Z Z Z : : Z < A Z Z Z Z ",
": : : : : : &   : : : : : : : : : : : : : : : X X : : : q k x ..4.o.' q : : &   & : : : : > > > : : : : : : : X X : : : : : : & ",
"& < Z Z D D Z H I D Z < Z Z < & < Z Z D L L D Z Z Z Z K ! +.x.M.M.6.] T D D Z D I D 5 Z Z Z < & < 0 D D L L D Z Z Z A D Z Z < & ",
"X Z Z Z Z Z Z Z Z Z < Z Z D < $ Z Z Z Z Z Z Z Z Z Z G R -.M.M.M.M.u.] ! D Z Z Z Z Z < < Z Z < o Z Z Z Z Z Z Z Z Z Z Z Z Z Z Z $ ",
": Z Z Z D Z Z Z Z Z Z Z Z Z Z : Z Z Z Z Z Z Z Z Z S R  .m.N.N.g.5.#.~ U H Z Z Z Z Z Z Z Z Z Z : < Z Z Z Z Z Z Z Z Z Z D Z Z < : ",
"  $ & : : : : & : : : : : : : X & : : : : : : : > d v s.N.C.N.:.B B l x d u q > : : : : : : : X & : : : : : : : : : : : : & $   ",
"Z L D Z H Z <   < Z Z D L Z Z < Z Z < Z Z Z Z $ & G R d.N.C.V.g.V  .| T ^ ! c # 5 Z D D D Z D Z Z Z Z Z < Z ~ $ & Z Z D Z D L Z ",
"Z Z Z Z Z Z Z   < Z Z Z Z Z Z Z Z Z Z Z Z < < X : S R 2.x.N.N.v.f.4.X.( ^ R R 1 z Z Z Z Z Z Z Z Z Z Z 5 F ~ b - : Z Z Z Z Z Z Z ",
"Z Z Z Z Z Z Z   Z Z Z Z Z Z Z Z Z Z Z Z Z Z Z : & Z J ~ ,.x.x.x.h.c.g.n.n.g.+.g T U Z Z Z Z Z Z Z Z Z Z G  .{ & : Z Z Z Z Z Z Z ",
": : : : : : &   & : : : : : : : : : : : : : : X X : , l n | 7.f.h.x.b.B.B.Z.M.2.M p : : : : : : : : : : : { n @ X & : : : : : : ",
"& < Z Z L I L Z D D Z Z Z Z Z $ < Z D D D D Z Z Z Z Z G b R R M ..O.f.b.N.Z.B.c.O.T Z Z < Z < & < Z D D ^ ( G S Z Z I L Z Z < & ",
"X Z Z Z Z Z Z Z Z Z Z Z Z Z < X Z Z Z Z Z Z Z Z Z Z 5 Z F U R h N ] ..h.N.B.M.h.p.! Z Z D 5 < $ Z Z Z Z / _ S z Z Z Z Z Z Z Z $ ",
": Z Z Z Z D Z Z Z Z Z Z Z Z Z : < Z Z Z Z Z Z Z Z Z Z Z A Z J x ! ~ / 8.N.N.c.a.1.T Z Z Z Z Z : 5 Z Z Z U |  .S Z Z Z Z Z Z Z : ",
"X $ : : : : : & : : : : : : : X & : : : : : : : : : : : : : 2 h g h ] g.N.N.h.y.o.p > : : : : X & : : > > q ) :.: : : : : : $ X ",
"D I I D Z Z <   < Z D D I L D D Z Z Z 5 Z Z Z $ % Z D D I L U ! ^ @.s.C.B.M.h.<.N f D D I L D A Z Z Z Z A Z F  ., Z Z D D L I D ",
"Z Z Z Z Z Z <   Z Z Z Z Z Z Z Z Z Z Z Z Z Z Z & & Z Z Z Z G m  .8.M.V.A.V.M.5.B b Z Z Z Z Z Z Z Z Z Z Z Z ~ ( N X.Z Z Z Z Z Z Z ",
"Z Z Z Z Z Z :   < Z Z Z Z Z Z Z Z Z Z < Z Z : $ : Z Z Z S R X.m.B.A.A.N.M.-.v j S Z Z Z Z Z Z Z Z Z 5 < Z ` -.-.-.Z Z Z Z Z Z Z ",
": : : : : : &   & : : : : : : : : : : : : : : X X : : > d v l.N.B.A.B.k.=.d M j = : : : : : > q > : : : : ` 8.8.~ : : > : : : & ",
"& < Z Z I L Z Z Z Z Z Z Z Z < & < < Z L I I D Z Z Z Z J R 4.m.m.M.v.k.;.O._ ~ K A Z Z Z 0 Z s a s A D D L Q 8.` Z Z L L D Z < & ",
"X Z Z Z Z Z Z Z Z Z < < Z Z < $ Z Z Z Z Z Z Z Z Z D 0 R ~ x.c.N.x.u.0.$.{ R J S Z Z 5 5 Z D f a K S Z Z Z ^ +.Z Z D Z Z Z Z Z o ",
": Z Z Z Z Z Z Z Z Z Z Z Z Z Z : Z Z Z Z Z Z Z Z Z Z S R 3.c.M.v.p.y.0.$.] R S Z Z Z Z Z Z Z J d z J A Z Z Z Z 5 Z Z Z Z Z Z < : ",
"X $ : : : : : : : : : : : : : X & : : : : : : : = 9 d ) k.v.M.x.y.e.q.$.{ v > & : : : : : : q y a d e > : : : : : : : : : : $ X ",
"D L L D Z Z <   < Z D L L Z A Z Z Z Z Z Z < Z & ; U ! 7.v.M.v.a.e.e.q.>.;.$.b + < Z D L L Z A F U U R G Z 0 Z % & < Z Z D I L D ",
"Z Z Z Z Z Z Z X Z Z Z Z Z Z Z Z Z Z Z 5 A Z < * d ! 3.N.C.B.M.w.9.9.*.>.%.$.o.j S Z Z Z Z Z Z Z f K R U D Z < X : < Z Z Z Z Z Z ",
"Z Z Z Z Z Z Z   Z Z Z Z Z Z Z Z Z Z Z Z A Z Z p v O.f.B.V.B.x.w.q.q.*.9.%.%.$.[ m S Z Z Z Z A F U G U R S Z Z & : Z Z Z Z Z Z Z ",
": : : : : : &   & : : : : : : : : : : : : : d j { b.N.m.N.M.z.i.e.e.q.q.9.&.%.$.{ v , : : 9 d d e 9 u d w : : X X : : : : : : : ",
"& < Z D I Z Z Z D Z Z < 5 Z 5 & < Z D L I U C o.z.N.b.c.M.x.z.j.i.i.e.q.9.9.%.%.;.{ R w Z w K t i R U Y P D Z Z Z Z D L D Z < & ",
"X Z Z Z < Z Z Z Z Z Z Z D < < X < 5 Z Z G C } u.B.M.b.b.m.x.z.a.p.j.p.y.q.q.9.>.%.$.{ K D 5 s y f R J A Z Z Z Z Z Z Z < < Z Z o ",
": Z Z D D D Z Z Z Z Z A F F A : : : 0 D R o.t.N.N.b.N.M.c.c.c.z.i.i.i.y.w.q.q.q.<.$.>.] G Z J d e 9 0 D Z D Z Z Z Z D D D D Z : ",
"X $ : : : : : : : : : < f f q O & : : b { ;.v.N.b.c.v.c.b.c.z.a.i.i.i.y.e.w.q.w.e.q.q.%.' d d y 7 : : : : : : : : : : : : & $ X ",
"L Z Z Z Z Z <   < Z Z L W ^ K Z Z Z E =.>.f.M.m.x.c.x.c.c.j.p.p.p.i.i.i.r.e.e.e.e.e.r.q.<.=.~ ~ F 0 Z Z Z Z < & & Z Z Z Z D D D ",
"Z Z Z Z < Z <   > : 5 0 s U J Z Z K O.,.y.c.b.z.x.c.c.x.x.i.y.y.i.y.y.i.i.r.e.e.e.e.r.w.<.$.) ^ S Z Z Z Z Z Z : : Z Z Z Z Z Z Z ",
"Z Z < Z Z < &   5 Z D D J b G Z S ) ;.1.z.j.c.c.c.c.c.h.i.e.e.e.e.q.q.q.y.r.e.e.e.e.w.y.w.<.) ^ S Z Z Z Z Z Z : : Z < Z Z Z Z Z ",
": : : : : : & X & : : q m v 4 : u C $.t.p.z.b.M.b.c.x.a.y.e.w.w.w.q.q.q.q.e.e.e.e.w.r.y.i.0.;.) s : : : : : : X X : : : : : : & ",
"& < Z Z D D Z D I H w R N U 5 & b ] :.p.j.x.M.b.c.x.a.a.y.w.e.w.e.q.*.q.q.q.w.e.e.e.w.r.r.r.>...R Z D D L L D 5 5 Z Z D Z Z < & ",
"$ Z Z Z Z Z Z Z Z Z F ! ~ F < - N ] =.p.z.z.z.x.x.z.y.r.e.w.w.w.w.q.w.q.*.q.q.w.r.e.e.e.r.i.>.=._ S Z Z Z Z Z Z Z Z Z Z Z Z Z $ ",
": < Z Z H Z Z Z Z Z U / ~ F Z , N C =.j.z.p.j.z.x.i.e.e.w.q.w.q.q.w.q.*.q.q.q.*.q.e.w.e.r.i.>.o.^ U S Z Z Z Z Z Z Z Z D Z Z Z : ",
"  $ : : : : : & = : d n m k > r v C t.j.j.a.a.z.x.y.e.e.w.w.w.q.w.w.q.q.*.q.q.*.*.q.e.e.r.r.0.;...f 9 : : : : : : : : : : & $   ",
"Z L Z Z D Z <   < Z H / ) R R R C :.p.j.j.a.j.z.z.i.e.e.q.q.w.q.w.q.w.q.*.q.*.q.*.*.*.e.e.y.t.:. .E G Z 0 Z 5 % > Z Z D Z D L Z ",
"Z Z Z Z Z Z Z   Z Z Z K N K U R C ,.j.j.j.j.j.x.x.a.e.w.9.q.w.w.w.w.w.*.9.9.9.9.q.9.*.9.w.r.w.:. .~ F 5 Z 5 < X > Z Z Z Z Z Z Z ",
"Z Z Z Z Z Z Z   Z Z Z S R z U b / 5.j.z.j.z.j.c.b.a.w.q.w.e.t.e.w.w.e.w.q.q.9.9.9.9.*.*.q.y.e.:.C _ J A Z Z Z & : Z Z Z Z Z Z Z ",
": : : : : : :   & : : : q d d k b 0.p.j.j.k.j.c.c.i.e.w.e.y.e.q.e.w.w.e.w.q.q.9.9.q.q.*.9.q.e.;.C V w : : : : X o > : : : : : : ",
"& < Z Z L L L Z D D Z Z Z w J d N 0.p.z.j.j.j.z.x.a.e.w.e.e.e.e.e.w.w.w.q.q.q.q.9.q.q.q.9.9.e.;.] V H D D D Z Z Z Z I L D 5 < & ",
"$ Z Z Z Z Z Z Z Z Z Z Z A 5 w y R ,.i.z.z.j.j.j.x.z.r.q.e.e.q.e.e.q.q.q.q.q.q.9.9.q.w.*.*.*.9.;.| ~ F A Z Z Z Z Z Z Z Z Z Z Z o ",
": < Z Z Z Z Z Z Z Z Z Z Z Z A p R X.i.z.c.z.j.j.x.x.p.e.q.w.q.q.e.q.q.9.9.q.9.9.q.e.w.*.*.*.*.} | R F A Z Z Z Z Z Z Z Z Z Z Z : ",
"X $ : : : : : : : : : : : : : 8 k C y.z.c.z.j.j.z.v.x.i.y.q.w.w.q.q.q.q.9.9.9.q.q.q.q.*.*.*.*.' ] p 9 > : : : : : : : : : : $ X ",
"D I L L Z < <   < Z D D I L A D f V ,.z.c.x.x.j.z.x.m.h.y.y.w.w.q.q.q.*.*.*.*.*.*.q.*.*.*.*.%.} N G i Z Z 5 5 & & Z Z D D L I D ",
"Z Z Z Z Z Z <   Z Z Z Z Z Z Z Z A R ) u.c.x.b.z.j.x.M.v.y.e.e.q.q.*.*.*.*.*.*.*.*.*.*.*.*.&.;.{ U G S Z Z Z Z & : Z Z Z Z Z Z Z ",
"Z Z Z Z < Z :   < Z Z Z Z Z Z Z Z J ~ ) k.c.N.x.j.z.v.v.j.y.e.w.*.*.*.*.*.*.*.*.*.*.*.*.*.&.N R J S A > Z D : $ : Z Z Z Z Z Z Z ",
": : : : : < &   & : : : : : : : : > d m :.k.x.z.j.j.j.j.j.p.e.q.q.*.*.*.*.*.*.*.*.*.*.*.%.B d u q > : : : : : X X : : : : : : : ",
"$ < Z D L L Z Z Z Z Z < Z Z < & 5 Z J ! =.j.j.z.j.j.j.j.j.z.i.e.r.*.*.*.*.*.*.*.*.*.*.$.N R f 3 0 Z D D L I D Z Z Z L L Z 5 < & ",
"$ Z Z Z Z Z Z Z Z Z Z Z Z D < X Z Z A R N =.k.i.p.j.j.a.j.j.i.y.e.*.*.*.*.*.*.*.&.&.{ N K J w % Z S Z Z Z Z Z Z Z D Z Z Z Z Z $ ",
": Z Z Z Z Z Z Z Z Z Z Z Z Z Z : Z Z Z S K ~ ) =.1.j.u.i.j.j.i.y.q.*.*.*.*.*.&.%.$.{ ~ f H D A : 5 Z Z Z Z Z Z 5 Z Z Z Z Z Z Z : ",
"  $ : : : : : : : : : : : : : X & : : : , k v v v M ;.;.,.t.y.&.&.&.&.&.&.$.{ ' C d q , : : : X & : : : : : : : : : : : : : $ X ",
"D L I D Z Z <   < Z Z L L Z Z Z Z Z 5 Z Z w S q r R ! ` _ ) ) | ..o.O.] ) b l 6 w Z A L L Z D Z Z Z 5 Z 5 Z 5 & & < Z D Z L L D ",
"Z Z Z Z Z Z Z   < Z Z Z Z Z Z Z Z Z Z Z Z Z < X : A S F J K K R b K J G F A Z . Z Z Z Z Z Z Z Z Z Z Z Z Z Z < X & Z Z Z Z Z Z Z ",
"Z Z Z Z Z Z Z   Z Z Z Z Z Z Z Z Z Z Z Z Z Z Z & : Z Z Z Z Z Z Z Z Z A Z Z Z Z . Z Z Z Z Z Z Z Z Z Z Z D Z Z Z & : Z Z Z Z Z Z Z ",
": : : : : : &   & : : : : : : : : : : : : : : X X : : : : : & : : : : : : : &   & : : : : : : : : : : : : : : X X : : : : : : : ",
"& < Z D L D Z D D Z Z Z Z Z < & < Z Z L I D Z Z Z 5 Z Z 5 Z Z & < 0 A D I D 5 D D Z Z Z < Z Z $ < Z Z L I D Z Z Z Z Z I D Z < & ",
"$ Z Z < < Z Z Z Z Z Z Z Z Z < X < Z Z Z Z Z Z Z Z Z Z Z Z D < X Z Z Z 5 5 Z Z Z Z Z Z < D < < $ < Z Z Z Z Z Z Z Z Z Z Z Z Z Z $ ",
": Z Z D D D Z Z Z Z Z Z Z Z Z : : : < D Z D Z Z Z Z Z Z Z Z Z : Z Z Z D D D Z Z Z Z Z Z Z Z Z : & : < D Z D Z Z Z Z D D D Z Z : ",
"X $ & : : : : & : : : : : : : X & : : : : : : : : : : : : : $ X X $ & : : : : : : : : : : : : X & : : : : : : & : : : : : & $ X ",
"L Z D Z Z Z <   < Z Z L I L Z D 5 Z Z Z Z Z 5 % & Z Z L I L Z D D D D Z Z 5 <   < Z D D I L D Z Z Z Z Z Z Z Z & & Z Z Z Z Z D D "
};
