/* XPM */
static char *_5e32570b5064d2789e4c45681a6ba3e5NtxY03ryTk3OfBb[] = {
/* columns rows colors chars-per-pixel */
"64 64 150 2 ",
"   c #141414",
".  c #121917",
"X  c #1C1C1C",
"o  c #1E201F",
"O  c #1F2423",
"+  c #172E28",
"@  c #1E3E37",
"#  c #222222",
"$  c #2B2B2B",
"%  c #21332F",
"&  c #2A322F",
"*  c #2C3331",
"=  c #233C36",
"-  c #2B3935",
";  c #2E3D3A",
":  c #323232",
">  c #323937",
",  c #323C39",
"<  c #3D3D3D",
"1  c #26453D",
"2  c #2C443E",
"3  c #33423E",
"4  c #3C413F",
"5  c #1F4C42",
"6  c #2D4640",
"7  c #204C42",
"8  c #334641",
"9  c #3D4442",
"0  c #334A44",
"q  c #3D4946",
"w  c #344F48",
"e  c #3B4E49",
"r  c #2C5149",
"t  c #27594E",
"y  c #34544C",
"u  c #3C554E",
"i  c #30584E",
"p  c #385750",
"a  c #355C53",
"s  c #3C5A52",
"d  c #2B6256",
"f  c #2C6B5E",
"g  c #366157",
"h  c #3A6057",
"j  c #35655A",
"k  c #3D665D",
"l  c #356A5E",
"z  c #3B695F",
"x  c #366D61",
"c  c #3B6D61",
"v  c #3B7366",
"b  c #337769",
"n  c #3E7669",
"m  c #377D6D",
"M  c #3C7A6D",
"N  c #3E7D70",
"B  c #434343",
"V  c #434947",
"C  c #434C4A",
"Z  c #4A4B4A",
"A  c #43524D",
"S  c #425651",
"D  c #4B5451",
"F  c #425B55",
"G  c #485B56",
"H  c #445F58",
"J  c #495D58",
"K  c #545454",
"L  c #515957",
"P  c #555B59",
"I  c #585858",
"U  c #42645B",
"Y  c #4A635D",
"T  c #42695F",
"R  c #51615D",
"E  c #426D63",
"W  c #4B6C64",
"Q  c #546661",
"!  c #536B64",
"~  c #447166",
"^  c #4A7067",
"/  c #43766A",
"(  c #4B746B",
")  c #427A6D",
"_  c #4B796E",
"`  c #437E71",
"'  c #4B7B71",
"]  c #527F76",
"[  c #368473",
"{  c #3D8474",
"}  c #368D7B",
"|  c #3D8B7B",
" . c #3C917F",
".. c #448275",
"X. c #4C8276",
"o. c #428779",
"O. c #4D867A",
"+. c #438B7C",
"@. c #4B8A7D",
"#. c #53857B",
"$. c #53897E",
"%. c #42907F",
"&. c #3C9482",
"*. c #3C9A86",
"=. c #3D9E89",
"-. c #3DA28D",
";. c #478F81",
":. c #4A8E81",
">. c #588D84",
",. c #449382",
"<. c #499283",
"1. c #409886",
"2. c #4E9788",
"3. c #459C8B",
"4. c #4C9B8C",
"5. c #509487",
"6. c #529689",
"7. c #519F8F",
"8. c #639C92",
"9. c #41A28E",
"0. c #48A08D",
"q. c #43A691",
"w. c #4CA492",
"e. c #46A894",
"r. c #4AAA96",
"t. c #4DAC9A",
"y. c #53A393",
"u. c #58A392",
"i. c #5FA698",
"p. c #52AD9B",
"a. c #5BAB9C",
"s. c #53B19E",
"d. c #66A196",
"f. c #64A499",
"g. c #61AD9D",
"h. c #56B3A1",
"j. c #5AB6A4",
"k. c #5CB8A7",
"l. c #5EBAA9",
"z. c #6AAEA1",
"x. c #63B2A4",
"c. c #69B4A5",
"v. c #6CB5A8",
"b. c #61BCAB",
"n. c #6DC2B2",
"m. c #72C4B5",
"M. c #76C7B9",
"N. c #78C7B8",
"B. c #77C8B9",
"V. c #79C8BA",
/* pixels */
"B B B B B B <   : : < < < B B B B B B B B B B $ : B B B B B B B B B B B B B < . > > B 4 < B B B B B B B B B B $ : B B B B B B B ",
"B B 4 B B < :   < Z Z Z B B B B B B B B B B B : : B B B B B B B B B 9 B V < , + V A C Z B B B B B B B B B B B : : B < B B B B B ",
": : : : : : $ X $ : : : : : : : : : : : : : : X X $ : : : : : & : > , 3 0 0 6 @ 0 0 3 , : > : : : : : : : > : X X : : : : : : $ ",
"$ < B B Z B B Z I Z B B < B < $ < B Z Z K K Z B B B B B B 4 B B * e S G Y G S Y Q Y s C V B < $ < B V Z K K Z B 4 B V Z B B < $ ",
"o 4 B B B B B B B B < < B Z : # B B B B B B B B B B B B B B Z 0 1 F H H S S U U E z u u V Z < o B B B B B B / B B B B Z B B B # ",
": B B B Z B B B B B B B B Z B : B B B B B B B B B B Z B B B A A y s F H Y E ) ....) T S A B B : B B B B A ^ ~ A B B B Z B B < : ",
"  # $ : : : : : : : : : : : : X $ : : : : : : : : : : : < : 2 5 7 r i c o.2.u.7.| M h w 3 : : X $ : : : 8 ) } & : : : : : $ #   ",
"B K Z B Z B <   < < Z Z Z B Z B B B < B B < B $ $ B B Z K V G H z _ +.7.g.v.a.| n T G J D V V B B B < B B +./ - # B B Z B Z K B ",
"B B B B B B B   B B B B B B B B B B B B B B < X : B B B B A H U ) 4.a.x.c.p.%.f U F S S V V B V B B B B ~ / e % : B B B B B B B ",
"B B B B B B B   B B B B B B B B B < B B B B B $ : B B B B A H ~ <.x.v.g.7...E 7 S T S A A V V A V B B B ' ` C a : B B B B B B B ",
": : : : : : $   $ : : : : : : : : : : : : : : X X : : : > 3 a M f.c.a.3.{ l a 5 [ g w 0 3 3 3 > > : : > a M ..% X : : : : : : : ",
"# < B Z K I K B Z Z B < B < B $ < B Z Z Z Z B B 4 B 4 B B u c @.z.x.w.3.3.,.+.%...G S s A V B & < B V D D G ..6.B B K K B B < $ ",
"# B B B B B B B B B B B B B < # B B B B B B B B B B 4 B V D z <.a.a.t.r.w.w.9.=.| E F S G q e % B B V V C V A @.Z B B B B B B # ",
": B B B B Z B B B B B B B B B : B B B B B B B B B B B B B C U ) 4.a.a.a.p.p.q.1.*.| T U G S S > B Z C C V ( _ ' #.B B B B B < : ",
"X # : : : : : : : : : : : : : X $ : : : : : : : : : : : > > 1 t b | <.2.u.a.p.9.*.*.[ g y g l 1 - ; ; > : ' $.>.#.: : : : : # X ",
"Z K K Z B < <   < B Z Z I K Z B B B B < B B B # $ B V Z K L G U T ! ! / +.w.w.-.*.*.+.^ R ( ~ C V V B B B ] d.f.' B B Z Z I I Z ",
"B B B B B B <   B B B B B B B B B B B B B B B $ : 4 B B B C S S S S F E %.p.q.-.1.&.| E E ) A V B V B B B J 8.( : B B B B B B B ",
"B B B B B B :   < B B B B B B B B B B < B B : # : B B B B A A A A F U / 3.9.-.*.*. ...T E c A Z B B B < B _ ] # : B B B B B B B ",
": : : : : : $   $ : : : : : : : : : : : : : : X X & : : , 0 3 0 g 3 g | 3.-.*.*.*.} b m l 0 3 > : : : : : : : X X : : : : : : : ",
"$ < B B I K B B B B B B B B < $ < < Z Z I I Z B B B B B C U S r M n o.3.9.9.-.*.*.+.{ ) h S e $ < B V Z K K Z B B B K K Z < < $ ",
"# B B B B B B B B B 4 < B V < # B B B B B B B B B Z 9 Z A ~ p d  . .9.9.-.-.-.-.*.| { E U G 8 # B B B B B B B B B Z B B B B B o ",
": B B B B B B B B B B B B k V : 4 B B B B B B B B V V V V E E }  .-.-.-.-.-.-.*.*.| | S S C V : B B B B B B B B B B B B B B < : ",
"  # : : : : : : * : : : s l p X $ : : : : : : : 3 0 y a v m } *.-.-.9.q.q.q.-.-.*.&.g w w : > O , : : : : : : : : : : : : : # X ",
"Z K K Z B B <   < B Z K ( E U u B B B B B B B * 2 S U @.,.*.=.-.-.9.e.r.r.e.-.-.&.{ G R P V V A H B 9 B 4 B 4 $ $ B B B Z K K Z ",
"B B B B B B B   B B B L E E C V B B B < V B 9 1 y H { =.-.-.-.-.q.e.t.h.t.e.-.-.&...U s S V V A H D B B B B < X $ B B B B B B B ",
"B B B B B B B   B B B Q E C C B B B B B V C S y y M +.*.-.-.-.-.r.s.j.h.t.e.-.*. .o.H A S V B G H D B B B B B $ : B B B B B B B ",
"$ : : : : : $   $ : : p / k , ; : : : > 8 y a t f } =.-.-.-.-.r.s.j.l.h.r.-.-.} } c y 0 0 : > q p p : : : : : X X : : : : : : : ",
"$ < B K I Z B B Z B B S ' ' k x < B Z I Q U E ` ,.=.-.-.-.-.e.t.j.l.j.t.q.-.-.} o.c H A A B 4 $ s G Z K I Z B B B B Z K Z < < $ ",
"# B B B B B B B B B B V ^ ] E x e V C S U U o.,.3.-.-.-.-.e.t.j.l.l.s.r.9.-.-.*.` T F u A < < # F H B B B B B B B B B < B B B # ",
"$ B B Z Z Z B B B B B B Z ( #.` c , u T E @.<.9.-.-.-.-.e.t.h.j.j.j.t.q.-.-.-.*.{ U H s V B B 0 p p < Z B Z B B B B Z Z Z B B : ",
"X # $ : : : : $ : : : : 0 e s :...b c { ,.4.9.-.-.-.-.q.r.h.j.k.j.s.e.-.-.-.-.*.x a y e , : e y y w : : : : : : : : : : : $ # X ",
"K Z B B B B <   < B B Z I L J >.@.@.+.3.r.e.-.-.-.-.-.e.t.j.j.k.j.s.q.-.-.-.-.-.{ U U Y ! P Y U H A B B B B < $ $ B B B B Z Z Z ",
"B B B B B B <   : : < < 9 C E O.5.+.q.t.t.-.-.-.-.-.-.t.h.j.l.l.j.s.t.-.-.-.-.-. .l s U T Y G U U V B B B B B : : B B B B B B B ",
"B B B B B < $   < Z Z Z V C / @.<.9.r.t.-.-.-.-.-.-.t.h.j.k.k.l.j.j.t.e.-.-.-.-.-.) ~ ~ ( ^ U U G B B B B B B : : B < B B 4 B B ",
": : : : : : $ X * : : : 0 l m { ,.r.s.-.-.-.-.-.t.t.h.j.k.l.l.l.l.j.t.e.-.-.-.-.-.| l [ ..~ h u y : : : : : : X X : : : : : : : ",
"# < B B Z B B Z I Z B B s n { { q.e.-.-.-.-.e.-.t.j.l.l.l.l.b.l.l.h.t.-.-.-.-.-.-.-.+.o.X.X.U i 9 B Z Z K K Z B B B B Z B 4 < $ ",
"# B B B B B B B B B < < F / | | w.q.-.-.-.t.t.s.j.k.l.l.l.n.l.l.l.j.s.e.-.-.-.-.-.-. .[ X.X.h i B B B B B B B B B B B B B B B # ",
": B B B Z B B B B B B B E E | ;.q.q.-.e.e.s.h.k.k.l.l.l.b.b.l.l.l.j.s.-.-.-.-.-.-.-.-.| ..( Y w B B B B B B B B B B B Z B B B : ",
"  # $ : : : : $ : : : : p a &.*.e.-.q.t.s.k.l.l.l.b.b.l.b.l.b.b.l.l.s.t.-.-.-.-.-.-.-.*.{ ..h = $ : : : : : : : : : : < : $ #   ",
"B K Z B Z B <   < B Z Z Z U :.1.q.q.e.h.k.l.l.l.l.l.b.b.l.b.l.l.b.l.k.s.e.-.-.-.-.-.-.9.@.O.W A B B B B B V 4 # # B B Z B B K B ",
"B B B B B B B   B B B B B E ;.,.q.e.e.h.j.j.j.k.k.b.b.b.b.b.l.b.b.l.k.s.r.e.-.-.e.-.-.q.@...~ A B B B B B B < X : B B B B B B B ",
"B B B B B B B   B B B B B U &.9.q.e.r.h.h.j.j.j.k.l.b.b.b.b.b.b.l.l.k.s.t.r.r.e.e.-.q.e.%.....G B B B B B V B : : B B B B B B B ",
": : : : : : $   $ : : : > w &.-.q.r.h.:.` l.l.n.n.n.n.n.n.b.:.) l.k.j.h.h.t.h.s.r.q.e.r.,.{ n 0 : : : : : : : X X : : : : : : : ",
"$ < B B K K K B Z B B B B S &.=.q.t.h.0 2 2.b.n.B.V.V.B.N.N.w w 4.l.k.l.j.h.h.h.r.t.t.p.<.o.) 2 < B Z Z Z Z B B B B K K B B < $ ",
"# B B B B B B B B B B B Z S N =.-.e.p.3 ; k b.v.B.B.B.B.N.M.3 ; z k.l.k.j.s.t.r.r.p.j.i.<.{ n = B B B B B B B B B B B B B B B # ",
": B B B B B B B B B B B V S M *.-.-.e.6 ; k l.n.v.m.n.n.n.n.0 ; k k.j.h.s.r.e.e.t.h.k.y.+...E 3 V B B B B B B B B B B B B B < : ",
"  # : : : : : : : : : : > 8 j } -.-.q.{ N ;.k.l.b.b.b.b.b.b.....:.s.t.r.q.q.q.r.s.j.j.y.v v y = & : : : : : : : : : : : : : # X ",
"Z I I Z B B <   < B Z Z I L E ` -.-.-.-.q.e.t.h.s.j.j.j.k.j.t.r.e.q.q.q.9.e.r.s.j.j.s.<.X.! G A B B B B B B B $ # B B Z Z I I Z ",
"B B B B B B <   B B B B B B D W *.-.-.-.-.-.-.e.e.t.t.t.t.r.q.-.-.-.-.9.q.r.s.j.j.s.0.| ) F D Z B B B B B B B $ : B B B B B B B ",
"B B B B B B :   < B B B B B Z H  .-.-.-.-.-.-.-.-.-.e.-.q.-.-.-.-.-.9.e.t.s.j.k.j.7...F U G C B B B B < B B : # : B B B B B B B ",
": : : : : : $   $ : : : : : > 8 g  .-.-.-.-.-.-.-.-.-.-.-.-.-.-.q.e.r.p.j.j.k.s.7.z y y w 3 : : : : : : : < : X X $ : : : : : : ",
"$ < B Z K K B B B B B < 4 B 4 $ q U | -.-.-.-.-.-.-.-.-.-.-.-.9.e.t.s.j.j.j.j.u.E G S S u V B $ < B V Z K I Z B B B K I Z < < $ ",
"# B B B B B B B B B < B B Z < o B V S / *.-.-.-.-.-.-.-.-.-.-.e.t.h.j.j.k.s.6.T S S u A Z Z < # B B B B B B B B B Z B B B B B # ",
": < B B B B B B B B B B B B B : 4 B V C ) o.| =.-.-.-.-.-.-.-.9.t.s.h.p.0._ U A A A C V B B B $ B B B B B B B B B B B B B B < : ",
"X # : : : : : : : : : : : : : X $ : : : 3 l v m } *.*.*.*.*.}  .&.b n { a 0 3 > > > > > : : : X $ : : : : : : : : : : : : : # X ",
"Z K K B Z B <   < B Z K K B B B B B B < B V V * 1 z E _ ( n ~ T W R R D A V 4 . < B B K K B Z B B B B < B < B # # B B B Z K K Z ",
"B B B B B B B   B B B B B B B B B B B B B < < X * V V Z C C V Z Z V V V B B B   B B B B B B B B B B B B B < < # : B B B B B B B ",
"B B B B B B B   B B B B B B B B B B B B Z B B : : B B B V B B B B B B B B B B   B B B B B B B B B B B B B B B $ : B B B B B B B ",
": : : : : : $   $ : : : : : : : : : : : : : : X X : : : : : : : * : : : : : $   $ : : : : : : $ : : : : : : : X X : : : : : : : ",
"$ < B Z I Z B B Z B B < B < B $ < < Z K I Z < B B 4 B B B B < $ < B V Z I Z B V Z B B B < B B $ < B Z K I Z B B B B B I Z B < $ ",
"# B B < B B B B B B B B B B < o < B B B B B B B B B B B B Z < X B B B < B B B B B B B < Z < < # < B B B B B B B B B B < B B B # ",
": < B Z Z Z B B B B B B B B B : : : < Z B Z B B B B B B B B B : B B B Z Z Z B B B B B B B B B $ $ : B Z B Z B B B B Z Z Z B < : ",
"X # : : : : : $ : : : : : : : X $ : : : : : : : : : : : : : #   X # : : : : : : : : : : : : $ # $ : $ : : : : $ : : : : : $ # X ",
"K Z B B < B <   < B Z Z I K Z B B < B B B B B $ # B V K I K Z Z Z Z B B B < <   < B Z Z I K Z Z B B B B B B B $ $ B B B B Z B K "
};
