/* XPM */
static char *_a706803138e4305c9e2e5fe9f5b1254NcxYjEtpczJlgFZ8[] = {
/* columns rows colors chars-per-pixel */
"64 64 74 1 ",
"  c #0E0E0E",
". c #110F0F",
"X c #141413",
"o c #1B1512",
"O c #1D1D1D",
"+ c #220E0E",
"@ c #28120F",
"# c #231211",
"$ c #2D1611",
"% c #231914",
"& c #2D1914",
"* c #231B18",
"= c #2E1D19",
"- c #311B15",
"; c #301F1A",
": c #3B2316",
"> c #372118",
", c #3B251A",
"< c #3E291D",
"1 c #242424",
"2 c #2C2C2C",
"3 c #3A2821",
"4 c #342E2E",
"5 c #323232",
"6 c #393737",
"7 c #3B3936",
"8 c #3B3B3B",
"9 c #402715",
"0 c #412A17",
"q c #452C1F",
"w c #482E1F",
"e c #462E20",
"r c #492F21",
"t c #463126",
"y c #4B3223",
"u c #45342B",
"i c #4A3429",
"p c #4D392E",
"a c #503627",
"s c #513728",
"d c #543A2B",
"f c #413731",
"g c #4B3B33",
"h c #533E32",
"j c #47403B",
"k c #524036",
"l c #524238",
"z c #3F4140",
"x c #434343",
"c c #4B4643",
"v c #464847",
"b c #4F4A45",
"n c #474848",
"m c #4B4C4B",
"M c #514944",
"N c #504D49",
"B c #50504D",
"V c #4F5150",
"C c #535454",
"Z c #565857",
"A c #575A59",
"S c #5A5C5C",
"D c #5D605F",
"F c #5F6161",
"G c #626665",
"H c #646867",
"J c #666A69",
"K c #6B6E6D",
"L c #6C706F",
"P c #6E7271",
"I c #737675",
"U c #747877",
"Y c #767A79",
"T c #797D7C",
/* pixels */
"nnxxxxzX658xzxxxxxxxvxx55xxxxxxnnxxxxxzX65zzzxxxxxxxxxx55xnxxxxn",
"xx8xx85X8nnnxxxxjxxxxxz55xxxxxxxxxzxx84X8vnnxxxxxxxxxzx45x8xxzxx",
"5556552O455555555555555OO55555555455652O455555554555565OO4555555",
"2zfxmxzmCmzzzx828xnbVCmxzzzxzzzz28znnxznCmzzzz828xnmVVmzzznmzz82",
"8CFHHGHHHGFFGGFDGGGHGGGGGSSSFFFAZDADDDADSDSSDFSCSDDDDSDDSDDDSZm4",
"VJUYTTTTTTTTTTTTTTTTTTTTIIPPPLPPPPPPPPPPPPPPPPPPPPPPPPPPPPLPPKAz",
"SPYYUUTUTUTUUTTUYYTTTTYYIIPPPPPPPPPPPLPPPPPPPPPPPPPPPPPPPPPLPPFn",
"SFJJKKKKLLPLLPLLLLLLLLLLKKKKLLLLLLKLLKLLKPKKKKKKKKKKKLKKKKLJLLFm",
"nCASSS>$@++#+#++@@###+###%##+#o&&&&&-=&;=$&=&&,,,;,3,3-,$=SSSAVx",
"zzVSCCgg3ryyyyrewyyyyyrqwywywaww30eeereee,eeee,,,;,,,<-3xeCCCVxx",
"56zFSArirrryyyyewyawyyyqwyyyawyyeeiryyraerrryyyyreyyryyyueSASx55",
"28mFFFrcpaaryyrewywwyyywwyyyyyyyeryrrrareeyyyyyyreyyyyyymtGGFV82",
"1znFGGrurarayryewaaaaaaywaaywyyyeeraraareeassaayrerayyyryfFHHVx1",
"5znFGGadhMasdddydddddddwrklaawyyeerahMdirdddddddssssdsdNdhHHFV85",
"O1zFGGdddhddddddddkdddkyakkkkwyyeqrsdddddpddddddddddddhhhdDFFn1O",
"VCFFHHdhMddddddddyaaadaakMaayyyyeqraaddNhddsssassddddhNhddJFHACn",
"zzmFFJt><,,:::,>:,<:,::::&yyyyyyeqyyyyal$$:<<<:;,;99$,,>::GGGVxz",
"vzVFJF<>,ywyyy<,>yrrtq<:>qyyyyyyeqtyyyyre<>yyyy<,>;reeeeq;GGGmzz",
"55zJGG3qyyroyyywtyyyyyyeqyyyyyyyyqyyyyyyeeyyyyyyrqra yyyeqGGGv54",
"28mFGFX<yy<.<yt<eyyyyyyqyyyyyyyyyqyyyyyyeqyyyyyyaeer yteeoGGHm62",
"1zmHGHX %%o.o tetyyyyyyqryyyyyyyyqeyyyyyeqyyyyyyre#.      HHFmz1",
"5zmHGFo<yyr.<yrwyyyyyyyqqyyyyyyytqeyyyyyreyyyyyyrrey yyr, FFHV85",
"O1zFFFtyyyeXeyw<tryyyyyqqyyyyyyytqyyyyyyrqyyryyyarey yyr3eFHHv1O",
"mVDFHFeyyryyyyywryyyyyyq<yyyyyyyrqyyyyyyrqyyyyyyrreyyyyyeeHHFAmm",
"zxmGGFttyyyyyyw<yyyyyyyqwyyyyyyyyqyyyyyyreyyyyyyrtqyyyyyeqFHHVzz",
"xzmGGFeyyyyyyywwyyyyyyy<eyimNmyyyqyytBBmeeyyyyyyyyqyyyyyeqHFFVzz",
"55zHGGeyyryyyywqyyyyyyyeqpBmBNbyyqrpNNmmbeyyyyyyyrqyytyyqqFHFv55",
"28mGGGqyyyyyyreqyryyyyywqg77m77utqyp77m77tyyryyyyrqyyyyyqqFHHm82",
"1zmHFHetyyyyyyweyyyyyyy<q77mNm77yqy77mNm77yyyyyyyyeyyyyytqDHFVz1",
"58mGFHqyyyyyyyreyyyyyyyqq77mNm77yqy77mNm77yyyyyryyqyyyyywtFHHV85",
"11zGHHtyyyyyyye<yyyyyywqeu77j77uyqyi77c774yryyyyyyqyyyyyeqHFFv11",
"VvVFFHqyyry ryqqyyyyyytqyyyy7jryyqyyyi7feeyyyyyyyyqy.<yyyqHFHVzm",
"xxVGGG+tyrt.qrqqyyyryrrqyyyyyyyyyqyyyytyqqryyyyyyyey ;rrrXGGGVzz",
"xxnGGG     . +,qyyyyysrryyyyyyyyyqryyyyyqqyyyyyyyr .  .. .HGGmzz",
"55xGGG+tyyy.,yqqyyrrrsryyyyyyyyyyqtyyyyyqqyyryyyreer ;ree*HGFv44",
"28mGGGryyyy.yywwyasyssrwysyyyyyyyqeyyiaywwassayyrery#eiayrGGFV62",
"1zmGGHydhdsssssadddddddwadldayyyyqyaalkawdddddddsssdsshdshGGJVz1",
"2zmGGGddNddddddddddddddaddhdsyyyyqyadkddddddddddddddddNhldGGFVz5",
"O1xFGGdhdddddddsdysdsddsdNdsyyyyyqyyadkMdddddaadsdddddddNhGHGn1O",
"zVVGHHdMd:@,,,$$$,,,,,$$-$$syyyyyqeyyqyaywyyyyww,-9--90009GGGn62",
"xzmHFFu,@::ryw9qr,yww9q9qqqyyyyyyqrya0w$$$+$$$$$qwqqqqqqe0GGGc44",
"xxmGHH;erayyyywwyyyyyyyrqyyyyyayyqyywayywwywwwyywwyywayyyrGGGVzx",
"52xGGGrdyyyyyywryyyyyyyyqyyyyyyywqyyyyyywwyyyyyywwwaawaypeGGGn54",
"28mGGGrbdrayyywwyyayyyywwyyyayyywqyaayyywwyyayyyyqwawaypMeGGGm82",
"1zmGGGisrryyrwqqyyrwyywwerryyyytwqyyyyyywwyyyyyyywwyyyyyytFFFVv1",
"5xVDFDigwyrrwwqwwwwwwwwwerrrreeeqqwwwwwwwwwwwwwwqqwwqyyetuFFDVx5",
"2xASSDeewwwwwwwwwwwwwwqwrerrretewwqwwwqwwwwwwwwwwwqwqeteygJFFCz2",
"VAKPPPPIIIIILLLIIIIIIIIIUUUUYUTTUYYYYYLYIILLPPPPLPPLPPPPPPPPPJSm",
"SJPPPPIUYYYTTTTYTTTTTTTTTTTTTTTTTTTTTTTTTUIPPPPPIPILPILPILPPPLGm",
"DKPPPPIUTYTTTTTTTTTTTTTTTTTTTTTTTTTTTTTTTUILPPPPLLPLPPLPPLLIPPGn",
"mAAASASSFFFFFFFFFFFFFFFFFFFFFFFFGFFFFFFFFFSAASZAASASAAAZAAAASZm8",
"256znz8688666882666zxxz6666666526688nn8686666862688fxn8666xx8852",
"1886888888668851668866866868885288688666885688526668686888866861",
"4688888686888885668688868888886568888888868888826866888686888865",
"1155442525255551255555255555551112255252445554512555555545555511",
"VVZxxz8X8xnCVxnxzxzzzzx21xnCVxmxnCAxnx8X8znVVxnzxxzzzzz11zxxnZVm",
"xxxxxxxXxxxxxxxxxxxxnz8O4xxxxxxxxxxxxxxXxxxxxxxxxxxxxz8O5xxxxxxx",
"nxxxxxxXzxxxxxxxxxxxxxx45xxxxxxnxxxxxxxXxxxxxxxxxxxxxxx45xxxxxxx",
"5455552X255555555555654OO25555455455852X255554555555655OO5555555",
"28xmZmxnmxxzxzz28xnCCnxxxxzxxxx18xnVZnxnmxxxzxx28xnCZnxxzxnZVx82",
"1xx8zxxxxxxznz818xxxxxxxxxxxxn61xxxzzxxxxxxznz818xxxxxxxxxx88xx1",
"4xxmmmxxxxxxxxx255znnnxxxxxxnxx5xxxmnVxxxxxxxxx455znxnxxxxVnVx85",
"O15555555555655O255555255556551OO14555455554555O255555555555541O",
"Cnnxxn8X8xnmACmnxxxxxxx22xnCZCnmCnnxxx8X8xnVSCmnxxxxxxx22xxxxnnV"
};
