/* XPM */
static char *cdadde0ce7824b3b81a10c3ec5cb5577Jts03BGv43YwAA1z[] = {
/* columns rows colors chars-per-pixel */
"64 64 114 2 ",
"   c #373635",
".  c #383736",
"X  c #3D3936",
"o  c #3D3A39",
"O  c #433C37",
"+  c #493F36",
"@  c #443E39",
"#  c #493F39",
"$  c #4D4137",
"%  c #47403A",
"&  c #4D4239",
"*  c #544537",
"=  c #584737",
"-  c #554837",
";  c #5B4937",
":  c #53453A",
">  c #584739",
",  c #56483B",
"<  c #5C4B3A",
"1  c #644F37",
"2  c #614E3A",
"3  c #675237",
"4  c #65513A",
"5  c #6B553C",
"6  c #6F583D",
"7  c #735B3D",
"8  c #795F3D",
"9  c #77603F",
"0  c #7C623D",
"q  c #535352",
"w  c #765F40",
"e  c #615751",
"r  c #655952",
"t  c #6B5E53",
"y  c #7D6340",
"u  c #746352",
"i  c #7C6853",
"p  c #83663E",
"a  c #86683F",
"s  c #8A6C3F",
"d  c #916F3F",
"f  c #806640",
"g  c #816641",
"h  c #826641",
"j  c #866941",
"k  c #886A41",
"l  c #8B6C41",
"z  c #8A6C42",
"x  c #8B6D43",
"c  c #8B6E42",
"v  c #8C6F43",
"b  c #8F6E42",
"n  c #8F7043",
"m  c #917141",
"M  c #937343",
"N  c #967442",
"B  c #957545",
"V  c #977645",
"C  c #947446",
"Z  c #987742",
"A  c #987643",
"S  c #9A7843",
"D  c #9B7A43",
"F  c #9B7945",
"G  c #9C7B45",
"H  c #9C7A46",
"J  c #9D7B46",
"K  c #9F7D47",
"L  c #9D7C48",
"P  c #9F7D48",
"I  c #867055",
"U  c #867155",
"Y  c #927857",
"T  c #997D59",
"R  c #A17E45",
"E  c #A27F46",
"W  c #A07D48",
"Q  c #A17E48",
"!  c #A27F49",
"~  c #A58246",
"^  c #A58247",
"/  c #A88447",
"(  c #A18048",
")  c #A38149",
"_  c #A48149",
"`  c #A58249",
"'  c #A78349",
"]  c #A7834A",
"[  c #A98448",
"{  c #A98649",
"}  c #A8844A",
"|  c #A9854B",
" . c #AA874B",
".. c #AE894A",
"X. c #AF894A",
"o. c #AE894B",
"O. c #AD894D",
"+. c #AF8A4C",
"@. c #B08A4C",
"#. c #B18C4D",
"$. c #B28C4D",
"%. c #B38E4F",
"&. c #B48D4D",
"*. c #B7904F",
"=. c #B9904E",
"-. c #AB8B5D",
";. c #AE8D5C",
":. c #B08F5D",
">. c #BA9150",
",. c #BA9250",
"<. c #B9955F",
"1. c #B79460",
"2. c #BA9660",
"3. c #BD9961",
/* pixels */
"q o o .   . .   . .   . X . . o o o o O . .   o . . . . . o . . . . . . . . . . X . . . . .                                     ",
"U y y y y 6 e % % , 2 6 y y y y 0 0 7 0 y y y 9 0 0 y y 4 & @ o O @ O O o O - 6 7 8 8 8 8 8 0 8 8 1 & X X - 3 3 - X   $ * * O   ",
"-.{ { { L x w < % 2 9 c ( ) ) ) W } } _ ) { ) } ) ) ) ( h 2 # # @ $ % $ & & 5 n W R R R R R R R d 0 3 o X 3 d s 3 $ $ - 1 1 *   ",
"3.,.%.%.| C y < & 2 9 n ) )  . .o.$.%.$.%.+.+.%.*.+.+.O.n 7 < * $ & < ; 4 4 9 Z [ X.X.@.$.X.@.@.@.p 3 O X 0 ~ d 0 * - 1 3 3 *   ",
"3.+.W W C h 5 : % , 4 w y y y n V H H W L R H K H G K S c 7 5 * * * 1 6 9 9 p d Z Z R S S E V Z d 0 1 O O 0 [ S 8 ; 7 3 3 - $   ",
"2.) x x y 6 , @ o : , 4 4 < 4 7 h l b k a k k b j s j s a 0 7 4 ; 1 6 0 a a a s p s p p p p p s p 7 = O O 0 o.d 8 1 8 8 1 * X   ",
"2.W x x h 6 , @ % 4 9 y y y y y k k l l k l c k k k k c 0 6 6 7 8 8 p p p s a a p p p p p s s p p 3 ; O X 0 R R 8 1 7 3 1 $ X   ",
"2.W x x h 6 , @ % 2 6 9 9 9 9 y y 8 h w p 8 w w 0 0 0 9 5 4 4 7 8 7 8 8 8 0 0 9 p 8 8 p 8 8 8 8 8 3 = # X 0 ~ d 8 1 8 7 1 $ X   ",
"3.W x x w w , @ o , q 7 5 5 5 5 w e 3 5 5 5 5 5 5 5 6 4 < < < 4 5 5 3 5 6 2 5 5 3 5 3 2 5 4 5 5 3 ; * + X 9 ~ D 8 1 8 3 3 + X   ",
"2.W x x w w , @ o % % , * - & * : # + * : # , # : : & & & & & & & : : + * & * + : + : # + + # + $ + + + X a ~ D 8 ; p 3 3 * X   ",
"2.W x x h w > @ o o o % @ % @ @ @ @ @ O @ O O @ O O O @ @ @ @ o o @ O O O o O O O O @ O O O X O X X +   X p ~ D 8 ; 8 8 1 $ X   ",
"2.! z z h 6 > @ o o o o o o o o o o o O O X o o o o o o o o o o X X X o X X X o . X X X X X . O X X       8 ~ D p 1 8 3 1 $ O   ",
"2.W n n h 6 * @ o @ @ # % % @ % @ @ # @ @ @ # @ @ @ @ @ # # # O @ @ # @ @ + O @ @ @ + O O + + + + + O X X p S D 8 1 p 3 1 $ X   ",
"2.W x k w 5 , @ o % @ & & & & < , : : : < < : : : < : & : > < < < < > : : > 2 5 4 2 ; = = : * + + + + +   8 ~ S 8 1 8 8 1 $ X   ",
"2.! k y 7 2 q @ o @ & : : : , 2 5 w < < 4 w < < 4 5 4 : 2 6 6 7 6 6 2 ; ; 5 8 k k p 6 6 5 2 + + + $ + + X p R Z p ; 8 3 1 * X   ",
"2.L y w 2 + + @ o # # & : : , 5 w y 2 5 7 w 5 2 7 7 7 : 6 p a k k j 7 5 2 p Z o.o.R p p 8 5 ; + * * + X X p ~ d p 1 p 3 1 * X   ",
"2.! k w , @ : @ o @ : + + 1 5 w 5 w w 5 6 w 5 w 6 7 7 7 y j k a p 7 7 7 p H } _ W N p 8 5 2 = + + * + X X 0 ~ ~ s 7 8 8 1 $ X   ",
"1.L y 2 < , : @ o @ : q 2 5 6 w 5 5 8 6 6 6 8 w 6 7 7 y p j j h 7 6 8 a N o.{ K d p p 5 2 ; ; 2 = * $ + X 0 ~ ~ d p p 8 1 $ X   ",
"1.V w w 5 2 q @ O @ @ 2 w 5 6 w w 5 w w 7 7 h p y 8 y c k j 0 7 7 6 p V _ { R N a 7 5 2 ; 2 3 3 3 1 * + X 0 / / d s s 8 1 * X   ",
"-.x w w w 5 # O @ # = 6 w w 4 5 w 6 2 5 6 h h p 0 0 h j p p 7 7 7 p Z } o.H N n p 7 2 ; 1 5 8 8 3 3 ; X O p / X.d s p 8 1 * X   ",
"T h w h h 6 # # o % q 1 7 4 2 2 6 6 > r 5 w y 7 7 8 7 7 7 7 7 7 p H } } R N a a p 7 5 3 5 8 p 8 8 3 * + O 8 / / d p p 8 1 *     ",
"i h k l y 7 < @ o % # > ; > q * > 2 + > # 2 * < ; ; < < < 4 6 h H &.{ H b b j a a p p p p p p 5 ; * + + O 8 / / d p p 8 1 + X   ",
"Y b k l p 5 * @ o # * 2 7 4 < < 6 8 b x b b b k 9 6 2 : 2 7 s H ~ @.R N s k a k a j a p p 8 7 2 * + + +   8 / / D s p 8 1 $ X   ",
"-.L b b p 6 q @ @ # < 5 w w 4 6 7 b W _ W $.W W c 9 5 < 6 0 C { } H V x k a k k a a a p p 7 2 ; ; * * + O 8 / / d a p 8 1 * X   ",
"1.! b x h 6 > @ @ # w w k h w w k C +.&.=.*.&.+.M h 6 5 8 c L | } b x k s j c p a a a 8 7 2 > ; 1 ; $ + X a / / D s p 0 1 +     ",
"2.W x b h 5 > @ @ w w f k k h j k b V V H C C m w 7 7 0 s k b M N k p c b p p b a a p 7 2 ; ; 3 8 3 ; + X a / / d a p 9 1 * +   ",
"3.) x x p 5 * @ @ 2 w h x x x x x x x x k j j 8 7 7 h H M x k s k s k p a k k k a p 8 2 * # < 6 8 3 ; + X 3 d d d p p 9 1 $     ",
"2.W x n h 6 q @ @ > 2 w k x x x x x k x k j 6 6 7 k L %.W m k c k k k s c k s a 7 7 2 * * * ; 6 0 7 ; $ X ; 3 8 a a p p 1 + +   ",
"2.W b x h w < @ @ > 6 w j x x x x x k k h w 6 7 c V { +.L x c k m H C x p k a p 7 2 : : * ; 3 8 p 7 ; + X + ; 3 p p p p 1 $     ",
"3.) x x w w * @ # e w h k x x x x x k h 7 6 8 j W } { W V x c m V } R M s p 0 6 3 ; : * ; 1 8 0 p 3 * +   X * 1 3 p p 3 1 * X   ",
"2._ U x h r # # + 6 p z x x x x b k j w w 6 k H $.+.) k k c x C W %.W m 0 p 7 2 * = ; ; 3 8 0 p p 3 ; + X + $ 1 8 p p 8 1 * +   ",
"2.W b b h w < # + 7 h j x x x x j h w 6 w k W +.{ L M j b m H { R b 8 7 4 4 2 < 1 3 8 8 8 p p 8 1 ; $ O   X + = 1 3 p 3 1 * X   ",
"2.W n x y w , % % 4 7 p h y y y 0 w 7 7 h n } +.K C x k l M W $.W 7 2 > > : : : ; 6 8 8 8 8 7 3 ; * + + o O # $ = 1 8 7 1 + +   ",
"2.) x x y w , @ @ ; 4 5 6 4 w w 6 w 7 y j b L W m n n k l M } %.H 6 > & : : : > < 1 5 5 6 3 5 = * * + @   O + * * 2 8 7 1 + O   ",
"2._ c x y w , @ @ , e 2 4 4 2 < 5 w x x x c n n n c b k M V W { N 2 , : > > 2 5 6 6 4 6 6 6 2 1 ; = : O . * 2 3 ; 2 7 7 1 + O   ",
"2.) c j w w , @ @ 4 5 w w w < 2 7 j { W C c j n j c k x H } ) x 7 < , : < 5 p N s s 9 c d s 8 7 7 2 : + X 5 a p 6 2 8 7 1 + O   ",
"2.W n n h w : @ % 6 y c y w 5 6 j W &.%.W n c j b c x x _ { V 7 : : , * 2 h C +.@.R d o.@.~ d a p 5 ; + O 7 ~ S 8 1 8 7 1 + O   ",
"2.) n x h 6 , @ % 7 y y w 6 y c L +.| W C j j b j c b k b k 8 2 # * < 6 7 c b W E b b S R d s a p 5 = O O 8 ~ S 8 ; 8 7 1 * O   ",
":.L x U h 6 , # $ e w w 5 w h C _ +.L M b j k x k c j c 8 6 2 , > < 6 8 p k s s k p p p p p p 8 p 3 = + O 0 { R p 3 8 7 3 + O   ",
"T C x x y 6 - O # < 5 w y y j L W _ M k y w j j b k k k 6 2 : , 2 6 8 p k k p 8 7 7 7 6 7 7 7 6 5 1 = + O 8 [ R s 7 p 8 1 + O   ",
"U y j b h 5 @ # O & 4 y h n n n M x j w w 5 y k k k k h 6 < , > 5 p h j k a p 6 2 2 ; 2 1 2 ; 2 ; - * O % 0 / / d p p 8 3 + +   ",
"e w y k 0 y q @ # > y k ) L x y y w 6 w 6 w j k k j h 7 4 < 2 6 w j k k k j p 7 6 6 5 6 6 3 3 6 3 ; * % X 0 / o.Z p p 8 3 + O   ",
"e q 4 y h 6 + + O 5 x ) *.| x y w < 2 5 w j k k k h w < , > 5 7 p p p k a p p p p 8 0 9 0 0 0 0 0 3 - % X 0 / @.Z p p 8 3 + O   ",
"t w 0 h h 6 > + q y L | +.L h y , , w w j k k k w 6 2 : : , 2 6 7 7 6 7 7 7 6 6 6 7 6 6 6 6 6 7 3 3 * $ O 0 / / Z s p 8 3 + O   ",
"I w h z h w # # , c L | C j 6 < < 4 7 h k k k h w 2 < : < < 4 7 6 5 2 5 5 2 5 6 7 6 7 3 6 2 2 2 1 = * + X 0 ~ / Z p p 8 3 + O   ",
"Y x x c h 5 * @ : b L L j 5 ; q , 4 h j k k w w 4 2 2 w 5 6 w 0 8 6 5 6 4 5 7 0 p p p 7 6 4 1 ; & & $ O O p ~ / Z p p 8 3 + O   ",
";.L b b h 7 q + & w h w 2 * : : , 4 h j j h 6 2 , < 6 p h x H { _ b a k h p m } &.=.o.Z a p 8 6 * * $ O O 8 / ~ Z p p 8 3 + O   ",
"2.W l b h 8 + @ @ 2 7 w , , : < 4 w h h h w 2 < < 6 y k c n L } W b k k k k N _ o.@./ Z a 0 7 2 * & $ O O p / [ Z s p 8 3 + O   ",
"2.W x x h 5 * & @ > q < # : < e y y j y w 2 < < w 9 j k k c M Z C c c s s j n N H H Z s p 7 4 = & & + # X 0 { { S a p 8 3 $ O   ",
"1.L h h h 5 # # o & : : > 2 2 h y c y 7 4 < 2 5 w j j n c c k c s k j c j s s b k s k 0 7 4 = : * $ + O X 0 { { S p 0 9 3 $ O   ",
":.b y w y 6 q @ o # & : # 4 7 h y y w 4 < < w y j k k k j k j j j a c j j a c 0 a p p 7 2 = * $ : $ $ # O 0 { { D a a 9 3 $ O   ",
":.l q h p h # @ @ @ & * # 4 7 h y w < , : < w w 0 0 h 0 p y y y 0 0 0 0 0 0 0 0 0 0 8 2 : : $ $ + * + O O 0 / { d s a 0 3 $ X   ",
":.k 2 8 8 6 > @ @ # > # < < e 1 4 2 , , , , 2 4 4 4 4 4 4 4 4 4 4 4 4 4 4 4 2 4 4 4 < < & & & $ : + + # X 9 / { d p p 9 3 $ X   ",
":.k e h h 6 * @ O # # + : : # + : : % % % & & , : : : : & , - & , : : : : * : & : * % $ $ % $ % + + # O X 0 / o.S p p 7 1 $ X   ",
":.x r w h 6 # @ O o + + # # * # % , & : & : % % % % % % % % @ @ @ @ @ @ % & & & & & & $ % $ & & : $ # O O 0 / / S s s 0 1 $ O   ",
":.k 2 8 w 6 2 # o # # q w w w w 5 6 6 7 4 e 2 , : , - : % % o o o o . @ & 2 5 5 3 5 4 < < < 5 4 4 ; : % X 0 / o.d a 0 3 1 $ O   ",
";.k < h p 7 q @ @ e 7 k W W ! ! { W _ W W H j 7 7 w 7 7 2 : % % % % % , 5 n K K ~ S H p p c S R S s 0 1 % 0 / / d s 3 3 ; + X   ",
"T k < 7 7 7 # @ # 1 p N &.,.,.>.&.>.,.,.,.&.H x k k k k y 6 7 4 4 - & 2 9 ~ *.*.=.=.$.S C ~ %.=.*.S s 5 $ 9 ~ ~ d 0 3 ; * * X   ",
"T h < e 2 < # @ O > w j x k x x x C W ) W W C k c c k c M H L H j 2 - , 4 0 n S ( ( ( m m H R W ( d a 6 % 3 s s 9 3 9 3 ; $ O   ",
"U w * < < > q @ @ # * r 6 w w w w j x m C M n c c c c x H { +.{ S 9 9 6 7 5 7 0 a b m s s s m m d s 0 5 $ 1 8 8 7 3 8 7 1 $ O   ",
"u e # + : & & @ O # # q : * w w w w h k b x s a k k k x C _ { _ R H C m c 4 < 4 7 0 a a s a p s s s 0 5 $ $ 3 5 3 7 0 8 1 $ X   ",
"e : # > : : & @ O + + > : w w w h h k k j k a j h j j j j h k M W *.=.%.) 7 < < 3 7 a p p p p p a 0 0 5 + X $ 3 7 p p 8 1 $ X   ",
"e : > > : : * @ O @ * # + 4 w 6 w w w w 7 7 6 6 w w 6 6 w w 7 7 h m N M c 9 7 6 6 6 6 6 6 5 6 5 6 6 5 ; O O $ ; 3 3 3 3 = $ O   ",
"e : : > : , & @ O @ # > > # q 2 < 2 , 2 2 2 e < , 4 < 4 2 2 < 4 4 6 7 7 7 0 0 0 0 6 < 4 < ; 2 ; 2 ; - - X O + * = 1 ; = * + O   "
};
