/* XPM */
static char *dfd99883808b487eab430e558a5cd8feKl0WxPvLkipotIdW[] = {
/* columns rows colors chars-per-pixel */
"64 64 85 1 ",
"  c #0B0A0A",
". c #0C0A0A",
"X c #0C0B0B",
"o c #0D0C0C",
"O c gray6",
"+ c #100E0E",
"@ c #111111",
"# c #131212",
"$ c gray8",
"% c #161616",
"& c #171616",
"* c #1B1B1B",
"= c #1C1B1B",
"- c gray11",
"; c #201F1F",
": c #222222",
"> c #242323",
", c gray14",
"< c #252525",
"1 c #272727",
"2 c #282727",
"3 c gray17",
"4 c #2C2C2C",
"5 c #2D2D2D",
"6 c #302F2F",
"7 c gray19",
"8 c gray20",
"9 c #353535",
"0 c #3A3A3A",
"q c gray23",
"w c #3C3C3C",
"e c #3F3F3F",
"r c #403F3F",
"t c gray25",
"y c gray26",
"u c #444343",
"i c #444444",
"p c gray27",
"a c gray28",
"s c #484747",
"d c #484848",
"f c #4B4B4B",
"g c gray30",
"h c gray31",
"j c #505050",
"k c #515151",
"l c #535353",
"z c #565656",
"x c gray34",
"c c #585858",
"v c #5A5A5A",
"b c #5C5B5B",
"n c gray36",
"m c #5D5D5D",
"M c #606060",
"N c #656565",
"B c #696868",
"V c #6A6969",
"C c #6F6F6F",
"Z c #706F6F",
"A c #727171",
"S c #747373",
"D c gray46",
"F c #767575",
"G c #787777",
"H c gray47",
"J c #7B7A7A",
"K c #7C7B7B",
"L c #7C7C7C",
"P c gray50",
"I c #807F7F",
"U c #808080",
"Y c #818080",
"T c #838383",
"R c #848383",
"E c #848484",
"W c gray53",
"Q c #888787",
"! c #898888",
"~ c #8C8B8B",
"^ c #8D8D8D",
"/ c #929292",
"( c gray58",
") c #9A9A9A",
"_ c #9E9D9D",
/* pixels */
"~YYYIIIGPKIIIYYYYYYUYYYLLYYYUYEYEYUUUUUHPKIYIYYYYYYYYYYJLYYYYY^_",
")YPYPPVZKPIIJGFJJFFFFFFVVCCCCCCCCCFLLJHCFKYYIYPPYPYYYYYYJUPYUU))",
"!zmmzz99sdgye0e000eeeew54wewwwwww7wweie90pmzggggddddddpeepdddgYY",
"Feyygdygzgyyeye3eypshkdieieiiyee4wyddpygcdyyyyy3yypgkkgyyydgypPJ",
"Gpyypypyyp0eyp0:yyyppyyyiiiiiid0:yyiiyiyyy0epd0:yyyypyiyypppidYJ",
"Jpppgyypyyyyppy8yyyyyyppyideiiii7eiigiyiyyyyyyy8yyyyyiyyyyydppUJ",
"G35898858888888-38888885799985,%%,5988948889988-38898988888989FF",
"Yzdygy0@0ydgdppyyyeyryy31eyhkideykpygye@eypgdypyyyeeyee<<ypdygYP",
"Ydpypyy%yyyyppyyuypype0=8yyyyuyuiyiyiyy%yyiyyyppyipeiee-8yypydYE",
"Ypyyyyy%ypyyyyypypypyyp55ypyuyuuyiyiypy%eyyiyyyyiyiiiiy55yypydE(",
"P988995@398888883<33553%=335<32>:<1,554@455554<87898888*-89990(!",
"Jyydkzkpddyyeyy<  X      X  XX                 3wypggpyyyyzkpdEY",
"Fppypyyyyyyppe0=                               -yyiyiyiyyiyyppYF",
"Jppyyypyppyppy8:                o              9epyiyyyiiypyydUK",
"J5888888<<3---                 XX      <3555954-38888889789890JF",
"Eccdpy0@XXXXo                          @0ypgzhppeyyyyye11eppdcEY",
"Ypyiyyw@ @X                          XX@yyyypyyyyiyypyy37iyyypPU",
"Ypyyyy8 X             X             XXX@yypyyypppyi0pp8:7yyyidPP",
"J:,337:               XX       X     XX@:3<33:357888998--88999JJ",
"F*     @                                       <wypgkzgyyykcpyPM",
"S*           X X                               *yiyypyiypppyppYc",
"F*             X             X+                <yyyyyiyyypyyypYm",
"F:::%**@      oX                 X XXX X*--:-:3*38888988889899Jk",
"Izzsye0@                      XX XX+X  o0epggypyyyeyeye<<yyddcEV",
"Ydpuyiy$                               +yyyyypyppyyypee-8ypyypYN",
"Ydpyiyy%    XX       X                X@yyypyyrpyypypyy55yypypYN",
"K988983%<<<<<<<X    XXXX X            X+:3<33<%59899988*-98999Km",
"Jyygcdypgyyyyyyo    XXXXXXXX           X      Xo0ypkcpyyyypzgpPz",
"Fppeeyypypyede0X        X                      X0yypuyppypueepY9",
"JpygdgyyyeyyyyrXX                              X59edppyyyygsgpPy",
"J3589888**-----X                             ooX<5533335888888Gc",
"Egdyyy0o  oXX oX                       X    XX         3<yyyugYE",
"Ydpyyye@                                               58yyyyyCP",
"Ypeyp05o                                             X 68y0ppekP",
"P988983%                          o XX         ;***=--5-*88988cP",
"Jyyygpygy388999-                  XX         +@30epsgkgyyypduuMF",
"Fppyppyypp0epp0oo                            XX:yyyyuyyypyyuupVG",
"Jpppdpypyyyyupy<XX      XX              XX     5yuyyypyyyypfppKG",
"F35898583<333<3%X               XX      <<332<3*38888888888988SS",
"Yzdydye@        X                X      0ypsgppyyyeyyye<<ryfydYC",
"Ydyiyiy%                                ryuyyyppiyiepee-8yyyppPJ",
"Ypiiiyy$                                ruyppyyyyiyiiyy58ypyypJP",
"Y988893$                        X X     <33<55559898988**88989FJ",
"Jyyikckye000000:                               30ypggiyyyyzkpyJF",
"Fpyipiyiyyyppe0:                              X:yyyyyyyiiyiyipYm",
"Jgiyiyiyyypyppy8@                     Xo   X  X8yyyiyyiyyiyyypPm",
"Jk8888858899998-<23322533  X   oXXXX   @%%&5553-38988888989899Jk",
"ESzgpye@eypdckdpyyyyyyy2:       XXX    +0rpgckpsyyyyyye3<eypgc!V",
"YNpyyye%yyyiyyypyyyyyyy3@         Xo   %yyyyypyyyyyypyy37yyyypYN",
"UPppyy5@yyyyypyyyyp0pp9:3@@        o   @ypyyyyyyyyi0pp8:7iyyipYN",
"JJ99995@498888888888999-=55535353555<5<%388888888898998--88989JN",
"FJpdckpyyyyeeye3eypgkcdpyyyyyyy<0ypdckdyyyeyyyy<0yigkzgyyykcdpPJ",
"mPppypypyyeeyd0:yyyyyyyyysydyd0:ypyypyyyypeepd0:yyyyiyyipdpyypJF",
"mPpyyyyyppyyypy8eypyppyyyppyppy8yyypyypyyyyyypy8yiyyyiyyyyyyppUF",
"zJ9999888889988*38888888888995:%-:8888588898988-38888888888989cF",
"CEcppy0@0ydkkypyyyeyyey<<ypckpgydkcppye@0ydkkydyyyeyyye<<eypicSY",
"JPpypyy%yyypyyypyypypee-8yyypyyyppyyppy%yyyyypyyyppepye*8yypypNP",
"UYpyyyr%yyyyypyypyypyyy55yyyyyppyypyyyr%yyypyypypyypyyy58yypypNP",
"FF99985%388888885889999*-88888858888983%588888858898989**88988cP",
"FJpgcpypgyyeeye3ryskcpyyyyyyyye50ypgzdypdyyyyye30edkcpyyyypzgpMG",
"SPckeyyypyyype0:0yyypyypypyypp0:ypyyypyppyyypy0:eypyupypypppsdSK",
"g/!YBSNMmcksdgd00epkdkpkzkkzzkkdkkzczczkkzzkzkzppdkMmmcmmmMSFZIS",
"<YYJKJJKPJFSSSSCZZZZSCCJJJPJYKFJJFPJJJKKJJJPKKKGJKKPKKJJKJJJKKJc",
"kMFFYIPFPIEEEEIPYYYIIPYJJYRE!EYEQIYYYYIFPYYE!ERIPIIPZSZBNSCmmmmc"
};
