/* XPM */
static char *_b7022209e0a4fd29ebdc35b3552eb20wXF6mhRf4y9346nQ[] = {
/* columns rows colors chars-per-pixel */
"64 64 145 2 ",
"   c #130D0D",
".  c #141414",
"X  c #1C1B1B",
"o  c #270F10",
"O  c #2B0F11",
"+  c #271110",
"@  c #281E11",
"#  c #201F1F",
"$  c #341213",
"%  c #3C1215",
"&  c #341813",
"*  c #3D1C15",
"=  c #3C171A",
"-  c #3A1A1C",
";  c #1F251D",
":  c #1C3511",
">  c #2E2212",
",  c #212F11",
"<  c #292A12",
"1  c #342414",
"2  c #3D2516",
"3  c #352D14",
"4  c #3A2C15",
"5  c #253512",
"6  c #2C3614",
"7  c #263D14",
"8  c #2B3B14",
"9  c #21301F",
"0  c #333415",
"q  c #303815",
"w  c #232323",
"e  c #282727",
"r  c #2C2B2B",
"t  c #3F2F20",
"y  c #2D302C",
"u  c #293C28",
"i  c #3D3623",
"p  c #333333",
"a  c #383737",
"s  c #3C3C3C",
"d  c #451317",
"f  c #431B17",
"g  c #451619",
"h  c #451B1B",
"j  c #481B1E",
"k  c #422017",
"l  c #43231A",
"z  c #471E20",
"x  c #481E20",
"c  c #422324",
"v  c #492325",
"b  c #4A2729",
"n  c #4C2B2C",
"m  c #4E3233",
"M  c #463E34",
"N  c #433939",
"B  c #4E3F3B",
"V  c #513536",
"C  c #503D3E",
"Z  c #164613",
"A  c #1A4515",
"S  c #1B4619",
"D  c #1E481B",
"F  c #224114",
"G  c #244319",
"H  c #21491F",
"J  c #244723",
"K  c #254A24",
"L  c #284B26",
"P  c #2C4C2B",
"I  c #314729",
"U  c #324B2E",
"Y  c #324D31",
"T  c #3A4339",
"R  c #3D4E3D",
"E  c #345033",
"W  c #4F413F",
"Q  c #40523F",
"!  c #434343",
"~  c #4D4343",
"^  c #444C44",
"/  c #4B4B4B",
"(  c #554444",
")  c #534C4C",
"_  c #5B4E4F",
"`  c #435442",
"'  c #4C544B",
"]  c #4C5A4C",
"[  c #505D4F",
"{  c #535353",
"}  c #5A5454",
"|  c #545B53",
" . c #585858",
".. c gray35",
"X. c #5A5A5A",
"o. c #5B5B5B",
"O. c #5E5B5B",
"+. c gray36",
"@. c gray37",
"#. c #5F5F5F",
"$. c #615353",
"%. c #665A5B",
"&. c #615D5D",
"*. c #655F5F",
"=. c #685E5E",
"-. c #546154",
";. c #5C645B",
":. c #62615F",
">. c #606060",
",. c #616161",
"<. c #636262",
"1. c #656363",
"2. c #636463",
"3. c #646464",
"4. c #656565",
"5. c gray40",
"6. c #676767",
"7. c #696161",
"8. c #686162",
"9. c #6B6666",
"0. c #646964",
"q. c #686C67",
"w. c #686868",
"e. c DimGray",
"r. c #6A6A6A",
"t. c gray42",
"y. c #6D6A6A",
"u. c #6B6C6B",
"i. c #6D6C6C",
"p. c #6D6D6D",
"a. c gray43",
"s. c #6F6F6F",
"d. c #716E6E",
"f. c #6E716E",
"g. c #717070",
"h. c #727171",
"j. c #727272",
"k. c #727372",
"l. c #757373",
"z. c #757575",
"x. c #777676",
"c. c #777877",
"v. c gray48",
"b. c #7B7C7B",
"n. c #828282",
/* pixels */
"! ! ! ! ! ! s . p p s ! s ! ! ! ! ! ! ! ! ! ! p r ! ! ! ! ! ! ! ! ! ! ! ! ! s . p a s s s ! ! ! ! ! ! ! ! ! ! r p ! ! ! ! ! ! ! ",
"! ! s ! ! s y . s ! ! / ! ! ! ! ! ! s ! ! ! ! r p ! ! ! ! ! ! ! ! ! s ! ! a y . s / / / ! ! ! ! ! ! s ! ! ! ! r p ! s ! ! ! ! ! ",
"r p p p p p r . p p p p p p p p p p p p p p p X X p p p p p p p r p p p p p r . r p p p p r p p r p p p p p p X X r p p p p r p ",
"e s ! ! / / ! /  ./ ! s ! ! s e s ! ! / { { / ! ! s ! ! ! s ! s e s ! ! / / ! / { / ! ! ! ! ! e s ! / / { { / ! ! ! ! / ! ! s e ",
"w ! ! ! ! ! ! ! ! ! s s ! ! s w ! ! ! ! ! ! ! ! ! ! ! ! ! ! / a # ! ! ! ! ! ! ! ! ! a a ! ! a w ! ! ! ! ! ! ! ! ! ! ! ! ! ! ! # ",
"r ! ! ! / ! ! ! ! ! ! ! ! ! ! p ! ! ! ! ! ! ! ! ! ! / ! / ! ! / p ! ! ! / ! ! ! ! ! ! ! ! ! ! p ! ! ! ! ! ! ! ! ! ! ! / ! ! s p ",
". w r p a p y y y p p p p p p X r p a a a a a a a s s s s p r w w r p a a p p p p p p a a p p X e p p p p p p p p p p p p r w . ",
"! { / ! / ! s . s ! / / / ! ! ! ! ! ! ! ! ! ! y r / ! { { / / / / { / ! { ! s X s ! / / / ! / ! ! ! s ! s ! s e e s ! / ! / { ! ",
"! ! ! ! ! ! ! . ! ! ! ! ! ! ! / ! ! / ! / ! ! y s / / / / / / / / / / / ! / ! w ! ! / ! ! ! ! ! ! ! ! ! ! ! s # p ! ! ! ! ! ! ! ",
"! ! ! ! ! ! ! . ! ! ! ! / ! ! ! / / / / / { ) ! ! { { { { { { { { { { / { / { e / ! ! / / ! ! ! ! ! ! ! ! ! ! r r ! ! ! ! ! ! s ",
"r p p p p p p X r a p a a s s s p s ! ! / / / ! ! { { { { { _ ) { { { / { / ! s ! ! ! s s a a a p a p p p p p X # r a p p p p r ",
"e s ! ! { { { ! { ! ! ! ! ! / r s /  .@.@.o. .@.@.w.3.w.0.1._ d @.3.t.3.t.t.9.@.<.+.{ { { / / p ! / / / / / ! ! ! ! ..{ ! ! s r ",
"w ! ! ! ! ! ! ! / ! ! / / / ! e ! {  .o. .( V n V &.i.d.7.V d ( s.s.l.s.i.t.9.3.2.,.@.+. .{ / s / / ! / ! ! ! ! ! ! ! ! ! ! ! w ",
"p ! ! ! ! ! ! / / ! / / / / / p !  .&.<.) d d % v d _ V d v v v  .c.v.z.d.d.y.9.s.t.6.8.,.@. ./ { { / / / ! / ! ! ! ! ! ! ! s p ",
"X w r p p p p p p a s s ! ! p p a  . .&.<.B d   % d d d d d d d d %.1.%.V m b x *.t.7.2.4.@.+.{ { / / ! ! s s s a p p p p r e X ",
"/  . ./ / ! s X ! ! / /  . ./ { ) { 1.w.d.} d d x d c = d d d d d $ $ d z x x d z n z V z.z.t.6.@.@... .{ / / p p ! ! ! {  .../ ",
"! ! ! ! ! ! s w ! ! / / / / / ! / / 3.t.s.s./ g d d d d d d d d d % & d j d d $ $ d d n z.z.l.s.t.6.@.@. .{ { s s ! ! / ! ! ! ! ",
"! ! ! ! ! s e w / ! / / / / / / ! @.3.3.s.z.t.t 4 % d d d d % % d f & % d d d     h d d l.d.=.9.a.t.6.@.@.+./ s s / ! ! / ! ! ! ",
"r p p p a p r X p a a s s s p s s { @.3.t.s.} d 8 > d d d d % + % d 6 f d f & d % d d d =.j d h  .t.3.@. . .{ s s s ! s s s a p ",
"r s ! !  .{ / ! ! / ! ! / ! ! p /  .3.t.g.g.n d 2 : @ d d d % O & @ A > d 6 7 d d d f l d d d d z 4.j.a.s.i.,.{ { /  .+.{ ! ! r ",
"w ! ! ! ! ! ! ! ! / ! ! / / s p /  .1.3.t.s.X.d d 0 5 ; & * d d 4 : Z , > A 0 d d d 0 d d d O % % $.j.i.w.4.@. .{ { / / { / ! e ",
"r s ! ! ! ! ! ! ! ! ! / ! / / ! /  . .1.3.1.3.n d d d 8 f d d d f 5 0 1 : 7 d d d 0 3 d 1 3 O % d $.j.i.w.4.@... .{ / / { / ! p ",
"X w p p p r r p p p p a a a s a a / {  .} v b d % d f 1 d d d f 7 4 d d 0 7 & * 0 F 7 < 0 d % f d 8.a.w.,.@...{ / ! ! s / s r w ",
"/ { { / / ! s . s ! / { { / / { / / { X.} d d g $ d $ d d d d 0 A 4 d d d d f d d h 4 3 d d $ - C ( O.w.6.,.O./ ! { / { { @.{ { ",
"! ! ! ! ! ! ! . ! ! ! ! ! ! / / / /  . .@.M g $   % d % d d d f 6 8 4 d d d d d d d d d d d d d d d d ( 2.@.+.! ! { / / { / / ! ",
"! ! ! ! ! ! ! . ! ! ! ! ! ! ! / / / /  . .{ f g d d g p d f d d d d 8 0 f d f f d % d d $ o d g d d d d { +. ./ ! { / / / / ! ! ",
"r p p p p p r . r p p p p p p p s a p ! ) ) c v d g 0 I h d h d d d 8 Z F 3 4 4 d d d % o . 6 6 2 z d d C { / s p s s s ! a a p ",
"r s ! /  .! ! / / ! ! s ! ! ! p ! / / / o.{ } { W ) ' Y U i l l 4 Q A Z u 0 d 4 g d d d % = f h d d d m <. .{ / / / {  .{ / ! r ",
"w ! ! ! s ! ! ! ! ! ! ! / s s r ! / / / / ! /  .&.1.<.1.0.q.2.<.q.0.Z K U n d d d z d d d z z d d d z ) { { / / / / / ! ! / ! w ",
"p s ! / / / ! ! ! ! ! ! ! ! ! p p a ! { /  . .{ ' :.,.,.3.3.u. .g.;.Z Z G n d d d ( _ B b d d d z ~ /  ./ { / / ! / / / { ! ! p ",
"X w e r p p p r p p p p p p p e p s s ! / / / / ) / s / / s p { ;.A Z Z A } d d d _ ...._ / / N ! ! ! s s s s a p p a p p r w X ",
"{ / / ! ! ! a . a ! ! /  .{ / / / ! / / / { { ! / | | ` ;. .{ @.u.A ` H A -.&._ ..,.,.4.w.,. .{ / { / / / ! ! r r ! ! ! ! / ! { ",
"! ! ! ! ! ! s . a p ! s ! ! ! ! ! / / / { ' R D Z Z Z Z Z ] f.f.0.Z -.[ Z ] 0.X.@. . .../ / / / / / / ! ! ! ! p p ! ! ! ! ! ! ! ",
"! ! s ! ! s r . s ! / / ! ! / ! / / { ' R Z Z Z Z Z Z Z Z Z 0.f.0.Z 2.0.Z ] :. .<.@.,.{ / { / / / ! ! ! ! ! ! p p ! a ! ! s ! ! ",
"p p p p p p r X p p a p s s s s ! ! ! K Z Z Z Z Z Z S Z ` Z ] u.;.Z 0.0.Z ] 2.+.@.! s p s s s p a s a a p a p X X r p p p p p y ",
"w s ! ! / ! ! {  ./ ! ! ! ! / s / {  .Y Z Z Z Z ` 0.0.0.f.0.Z ] ] A 0.q.Z | u.f.g./ ! ! /  .{ s / / / / { { { ! ! ! / / ! ! s r ",
"w ! ! ! ! ! / ! / / s ! / { ! s {  . .' Z Z Z ` f.c.c.c.b.g.P Z [ Z ;.q.Z -.g.<./ / s ! / { / s / / / / ! ! ! ! ! ! ! ! ! ! ! w ",
"p s ! ! / ! ! ! ! ! ! / / / / ! {  .@.@.L Z P u.c.v.b.b.b.b.-.Z ] Z -.f.Z -.g. ./ / ! ! / ^ { ! { / / / / ! ! ! ! ! ! / ! ! ! r ",
". w p p p p p p a p s s s s ! s ! { ..{ ] Z ] s.c.c.b.n.n.b.f.Z K Z -.f.Z -.f.! s s s a a a { ! ! ! ! s s a p p p p p p p r e . ",
"! { ! ! / ! s . ! ! / / { / ' { {  .O.<.2.@.t.s.s.g. .z.n.n.b.E S Z ;.f.Z ;.k.s./ <.,.s.w.1.,.X. .{ / / ! ! ! r r ! ! / ! ! { ! ",
"! ! ! ! ! ! s X ! / ! / / / / { {  . .@.6.6.t.6.g.{ / @.n.n.b.E Z Z 0.c.Z ;.c.f.f.q.q.0.]  .X.;.{ ..{ / { ! ! w p ! ! ! ! ! ! ! ",
"! ! ! ! ! ! ! . ! ! ! ! ! / / / { {  . .<.3.t.6.3.! ! / b.n.b.-.Z Z ;.f.Z ;.c.u.E D L H Z D P `  ...{ { { / ! p p ! ! ! ! ! ! ! ",
"p p p p p p r . e p p p p a a ! ! ! / { { ! ! { w p s p 3.v.c.-.H Z q.f.Z u.z.q.L Z Z Z Z Z Z Z ^ / / / ! s s r e a a p p p p p ",
"e s s / {  .{ ! / ! ! ! ! ! ! p ! / / { / / / ! ! { ! s {  .z.2.Z K k.-.Z u.;.E Z P Q D Z Z Z Z A Y .. ...{ / / ! !  .{ ! ! s e ",
"w ! ! ! ! ! ! ! ! ! ! ! ! ! ! w ! ! / / / ! ! ! / { { p ! { s.-.Z P q.P Z Z Z E q.f.t.Y Z Z Z Z Z Z R  .{ / / / / ! / ! ! ! ! w ",
"p s ! ! ! ! ! ! ! ! ! ! ! ! ! p ! ! ! ! ! / ! / { / / s a / { -.Z P ;.Z H [ 0.u.k.k.f.q.' Z Z Z Z Z S ' { { / / / / ! ! / ! ! p ",
". w p p p p p r p p p p p p p w p p p a s a p p ! ! ! e w e r ^ Z H ` Z [ 3.0.q.u.3.{ s / R Z Z Z Z S ^ ! ! ! s a s a a s p e X ",
"/  . ./ ! ! s . s ! / /  .{ ! / ! ! ! ! ! ! ! p a / ! / ! p p { Z Z L Z -.0.3./ / { { ' t.s.;.| Z R Z R ' { / a p ! ! / {  ...{ ",
"! ! ! ! ! ! s . s ! ! s ! ! ! ! ! ! ! s ! ! ! p p / / / ! r r T Z Z Z `  .<.! w { / { 3.3.t.3.<.|  .{ ' { / / a a ! ! ! / / ! ! ",
"! ! ! ! ! ! p . ! ! ! ! ! ! ! ! ! ! ! s ! ! p w p ! ! ! / p r u Z Z R {  ./ ! p ! { / { { / /  . ./ { / { ! r r s / ! ! / ! ! ! ",
"r p p p p p e . r p p p p p p p p p p p a a p X X p a p p p w 9 Z S s ! ! s p e ! ! s / / / ! a s ! ! ! p e r r e a s a s p a p ",
"r s ! /  .{ ! ! ! s ! ! ! ! s e s ! ! / {  ./ ! ! ! ! ! ! ! ! # S T ! s s a a / { / / { / / / s ! / { p p s { ! ! ! {  ./ ! s r ",
"w ! ! ! ! ! ! ! ! ! ! s ! / p w ! ! ! ! ! ! ! s ! ! s / ! ! r w p p p p s / {  . . . . . .@.{ !  .! p p a / / / ! { / ! ! ! ! w ",
"p s ! ! ! ! ! ! ! ! ! ! ! ! ! p s ! ! ! ! ! ! s ! ! s s r p r w r r r p p p p s s s s s ! ! s s p p p ! / ! / ! ! ! ! ! ! ! a p ",
"X w p p p p p r p p p p p p p X r p p p p p p e w w w w w X X . . X w w e w w w w e r r r r r X w w p a a p p p a p p p p p w X ",
"/ { { / ! ! s . s ! ! { { ! ! ! ! ! s ! ! s s X X e r s a a / ! / a  .! ! s a . p p p a p p r r r s ! ! ! ! ! w e ! ! ! !  .{ / ",
"! ! ! ! ! ! ! . s ! ! ! ! ! ! ! ! ! ! s ! s s . X r p s ! ! ! ! ! s s ! ! ! s . ! ! ! ! s r r r s ! ! ! ! s s w p ! ! ! ! ! ! ! ",
"! ! ! ! ! ! ! . ! ! ! ! ! ! ! ! ! ! ! ! ! ! ! p w p s ! ! ! ! s ! ! ! ! ! ! ! . s ! ! ! ! s s ! ! ! ! ! ! ! ! r p s ! ! ! ! ! ! ",
"r p p p p p r . r p p p p p p p p p p p a p p X . e e w p p p p p r p p p p r . r p p p p p r r r p p p p p p X X p p p p p p r ",
"r s ! /  ./ s / / ! ! s ! s ! w s ! / {  ./ ! s a p p r s s ! e s ! ! {  ./ ! ! / ! ! ! ! ! ! r s ! ! {  ./ ! ! ! ! !  ./ ! s r ",
"# ! ! s s ! ! ! ! ! ! s / s s # s ! ! ! ! ! ! ! ! p s r p ! s # ! ! ! s ! ! ! ! ! s ! s / s s X s ! ! ! ! ! ! ! ! ! ! s s s ! w ",
"p s ! / / / ! ! ! ! ! ! ! ! ! p p p s ! ! ! s ! ! ! ! p r ! ! p ! ! ! / ! { ! ! ! ! ! ! ! ! ! p p p s ! ! ! ! ! ! ! { ! { ! s p ",
"X w p p p p p p p p p p p p p X r p p p a p p p p p p p e r w X X w p p p p p r p p p p p p p X r p p p p p p p p p p p p r w X ",
"{ / ! ! ! ! p . s s / /  .{ / ! ! s ! ! ! ! ! e e ! ! { ! a / ! { ! ! ! ! s s . s ! / /  .{ / ! ! ! ! ! ! ! s e r s ! ! ! / ! { "
};
