/* XPM */
static char *_1201c8bea0d46a69c2da78a8ac17a40kfPcAeW0YlL5jddl[] = {
/* columns rows colors chars-per-pixel */
"64 64 19 1 ",
"  c #111111",
". c #151515",
"X c #181818",
"o c #1E1E1E",
"O c gray13",
"+ c #272727",
"@ c gray16",
"# c #2F2F2F",
"$ c #323232",
"% c #353535",
"& c gray23",
"* c #3F3F3F",
"= c #434343",
"- c #464646",
"; c #494949",
": c #4C4C4C",
"> c #515151",
", c gray34",
"< c #585858",
/* pixels */
"======* %$***==========##=============* %$***==========$#=======",
"==*==&# *---==========-$$=========*==&# *;-;===========##=&==*==",
"#$$$%$#.#%$$$$$##$$$$%%XX#$$#$$##$$$%$@.#$$$$#$$$$$$$%%Xo#$%$$$#",
"@&==;-=:,;====*@*=-;>>:========*@&=-:--:<;**==*@&=-:,>;===-:==&@",
"O=========&*=;&o==============-&o=========&*=;&O===========-===O",
"#==-:==========$==========;*-=-=$==-:=======-==$===========;-=*$",
".O#$%$$$#$$%$$$o@$$$$$$#$$$%%#O..O#$$$$#$$$%$$$X@$$$$$$$$$$%$#O.",
"=>;=:=& &=;:;=-===*=*==++==>>=-==>-=:=* &=;:;=-===*=*=*++==:=->-",
"=======.=============*&o#==============.==========-*-*&o#=======",
"=======.*==============$#============== ===========-===$#=======",
"#$$$$%# @$$$$$$$$$$$$$$XX$$$$$$##$$$%%# @$$$$$$$$$$$$$#XX$$%$$$#",
"@&=;>,>=:;===*=+&=;;:;=====*==*@&=-;>,>=:-===*=@&=;::-==-=,>-=*@",
"O==========--*&O==========*==-&O===========--*&O===============o",
"$==============$===========--==$============-==$*==============$",
"X+#$$$$#$$$%%%$o@$$$$$$#$$$$%$OX.+$%$$$$$$$%%$$o@#$$$$$$$$$$$$OX",
":<<;-=& &=;;,>;-=*=====++=-;<>;-:<,;-=& &=-:,>;-======*++==;:<<:",
"======& ==============*@#=============*.===============@$=======",
"===-*=#.===========&=-$+$==========-*=# ===========&--$O$=======",
"$$$$%%@.@$$$$$$$#$$%%%$XX$$$$$###$$$%%@.@$$$$$$$$$$$%%$XX$%%$$##",
"@&=-<>-===*=*=*@&=-:><;-==*===*@&=-;,>-===*=*=*@&=;;><:===>,;=&@",
"o===-=====**=;&O====-====-*;--&O==========**=-&O=========-=====O",
"$===========-==$*=========-====$============-==$===========-==*$",
"X+$$$$$#$$%%$$$X@$$$$$$$$$$%%#O.X+#$$$$$$$$$%$$X@$$$$$$$$$$$$$OX",
";>,;-=& &=->>=-====*=*=++=;,>=;=;><--=& &=->>=;===*=*=*++==--,,:",
"-======.===========*-*&o#=======-======.==========-*-*&o#=======",
"======= ===========-=-=##==============.=-=========-===$#=======",
"##$$%$@.@$$$$$$$$$$$%$$XX#$$$$$###$%%$@.@$$$#$$$$$%$%$#Xo#$%$$$#",
"@*=:,;=-:*===*=@&=;><-==-=====*@*=-:<-=-;====*=+&=->,;====-<:=*@",
"O==**-==-==*;*&o*===========--&O====*-=====*-**o&==========**==O",
"#==:;:=========$#$*---=======-=$*==;;:=========$#$*;--====:;:==$",
"XO$$$$#$$$$$%%$o@$$$$$$$$$$%%$OXXO#$$$$#$$$%%%$o@$$$$$$$$$$$$#OX",
">;-===& &=-:,>;-=======++=->,>;->;-===& &=-:,>--=======++====-;>",
"======* %$***==========##=======-=====& %$***==========$#=======",
"==*==&$ *;--===========##=========*==&$ *;-;===========##=&==*==",
"#$$$$$@X#$$$$$$#$$%$%$$oo$#$$$####$$%$@.#$$$$#$$$$$$$%%Xo#$%$$##",
"@&==:-=:,:*=*==@&=;:>>;========@*=-=:--:<;**==*@&=-:,>;===-:==*@",
"O=========&*--&o===========*--&o===-======&*=;&O===========-===o",
"$==-:========-=$==========-*===$*==-:=======-==$===========;-=*$",
".+#$%$$$$$$$$$$X@#$$$$$$#$%%%#O..+#$$$$#$$$%$$$X@$$$$$$$$$$%$#O.",
"=:-=;=& &=;;:=;====*=*=++==>>--==:-=:=* &=;:;=-===*=*=*++==:=->-",
"=======.=============*&o$=======-======.==========-*-*&o#=======",
"=======.===========-===##============== ===========-===$#=======",
"##$$%%@.@%$$$$$$$$$$$$$XX$$$$#$##$$$%%# #$$$$$$$$$$$$$#XX$$%$$$#",
"@*=->,>=;-==*=*@&=-::-=-==*===*@*=-->,>=;-=*=*=@&=;::-==-=,>-=*@",
"o==========--*&O====-=====*---&O===========--*&O===============o",
"$==-========-==$*==============$*==-========-==$*==============$",
".+$$$$$#$$%$%$$o@$#$$#$$$$$%%$OXX+$$$$$$$$$%%$$o@#$$$$$$$$$$$$OX",
":,<;-=* &=-:<>;-=======++=--,>--:,,;-=& &=-:,>;-======*++==;:<<:",
"=====** =-=============@#=============*.===============@$=======",
"===-==# ===========&=-%O$==========-*=# ===========&--$O$=======",
"##$$%%# @$$$$$$##$$%$%%oX#$$$$$##$$$%%@.@$$$$$$$$$$$%%$XX$%%$$##",
"@*=-,>-===*===*@*=-;><;=-=*===*@&=-;,>-===*=*=*@&=;;><:===>,;=&@",
"O=========**=-&O=========-*;=;&o==========**=-&O=========-=====O",
"#==============$*========--=-=-$============-==$===========-==*$",
"X+$$$$$#$$$%$$$o@$$$$$$$$$$%$#O.X+#$$$$$$$$$%$$X@$$$$$$$$$$$$$OX",
":>,-;=& &=;>>=-====*=*=++=-,>-;=;><--=& &=->>=;===*=*=*++==--,,:",
"=======.===========*-*&o#=======-======.==========-*-*&o#=======",
"===-===.*==========-===##==============.=-=========-===$#=======",
"#$$$%$@.@$$$$$$$$$%$%%$Xo$#$$$$###$%%$@.@$$$#$$$$$%$%$#Xo#$%$$$#",
"@&=:,;=-:====*=+&=->,-========*@*=-:<-=-;====*=+&=->,;====-<:=*@",
"O==**======*-*&O*============;&O====*-=====*-**o&==========**==O",
"$==;;:=====-===##$*---=======-=#*==;;:=========$#$*;--====:;:==$",
"oO#$#$$#$$$$%%$o@$$$$$$$$$$$%$OXXO#$$$$#$$$%%%$o@$$$$$$$$$$$$#OX",
">--===& &=;:,>;-=======++=-><>;;>;-===& &=-:,>--=======++====-;>"
};
